<?xml version="1.0" encoding="utf-8"?>
<!-- Generator: Adobe Illustrator 19.0.0, SVG Export Plug-In . SVG Version: 6.00 Build 0)  -->
<svg version="1.1" id="Camada_1" xmlns="http://www.w3.org/2000/svg" xmlns:xlink="http://www.w3.org/1999/xlink" x="0px" y="0px"
	 viewBox="0 0 223.8 210.3" style="enable-background:new 0 0 223.8 210.3;" xml:space="preserve">
<style type="text/css">
	.st0{clip-path:url(#SVGID_2_);fill:#FCB137;}
	.st1{clip-path:url(#SVGID_2_);}
</style>
<g>
	<defs>
		<rect id="SVGID_1_" width="223.8" height="210.3"/>
	</defs>
	<clipPath id="SVGID_2_">
		<use xlink:href="#SVGID_1_"  style="overflow:visible;"/>
	</clipPath>
	<path class="st0" d="M134.3,200.9c0.1,0,0.1,0,0.2-0.1C134.4,200.9,134.3,200.9,134.3,200.9"/>
	<path class="st0" d="M134,195.8l0.1,0C134.1,195.7,134,195.7,134,195.8"/>
	<path class="st0" d="M134.6,203.9C134.6,203.9,134.6,203.9,134.6,203.9c0,0.1,0,0.1,0,0.2L134.6,203.9z"/>
	<path class="st0" d="M132,185.3L132,185.3C132,185.4,132.1,185.3,132,185.3"/>
	<path class="st0" d="M133.1,191.5c-0.1,0-0.1,0-0.2,0C132.9,191.5,132.9,191.6,133.1,191.5"/>
	<path class="st0" d="M130.8,206.7l0.3-0.2C131,206.6,130.8,206.7,130.8,206.7"/>
	<path class="st0" d="M132.7,209.2C132.8,209.2,132.8,209.2,132.7,209.2C132.8,209.2,132.8,209.2,132.7,209.2"/>
	<path class="st0" d="M133.6,207.8c0,0-0.1,0-0.1,0C133.5,207.8,133.5,207.8,133.6,207.8"/>
	<path class="st0" d="M133.4,207.7L133.4,207.7C133.4,207.7,133.4,207.7,133.4,207.7"/>
	<path class="st0" d="M125.1,150.6c0-0.1-0.2-0.2-0.4-0.3L125.1,150.6z"/>
	<path class="st0" d="M129.4,176.5l0.1,0C129.5,176.4,129.5,176.4,129.4,176.5"/>
	<path class="st0" d="M122.6,150L122.6,150C122.6,149.9,122.6,150,122.6,150"/>
	<path class="st0" d="M129.6,205.5c-0.3,0,0-0.3-0.3-0.2C129.4,205.4,129.2,205.6,129.6,205.5"/>
	<path class="st0" d="M118.2,177.7L118.2,177.7C118.2,177.7,118.2,177.7,118.2,177.7"/>
	<path class="st0" d="M122.6,150L122.6,150C122.5,150,122.6,150,122.6,150C122.6,150,122.6,150,122.6,150"/>
	<path class="st0" d="M127.3,167.3L127.3,167.3C127.3,167.4,127.4,167.4,127.3,167.3L127.3,167.3z"/>
	<path class="st0" d="M127.7,166.8c0,0,0.1,0.1,0.1,0.1C127.8,166.8,127.8,166.8,127.7,166.8"/>
	<path class="st0" d="M124.7,150.3l-0.2-0.2C124.6,150.2,124.6,150.3,124.7,150.3"/>
	<path class="st0" d="M126.6,161.8C126.6,161.8,126.6,161.8,126.6,161.8C126.6,161.8,126.6,161.8,126.6,161.8"/>
	<path class="st0" d="M133,192C133,192,133,192,133,192C133.1,192,133.1,192,133,192"/>
	<polygon class="st0" points="124.4,190.9 124.4,190.9 124.4,190.9 	"/>
	<path class="st0" d="M124.8,191c0-0.1-0.2-0.1-0.4-0.1C124.4,191,124.5,191,124.8,191"/>
	<path class="st0" d="M124.4,190.5L124.4,190.5C124.4,190.5,124.4,190.5,124.4,190.5"/>
	<path class="st0" d="M125.2,194.6L125.2,194.6C125.2,194.6,125.2,194.6,125.2,194.6L125.2,194.6z"/>
	<path class="st0" d="M124.9,193.9c0,0,0.1-0.1,0.1-0.1C125,193.8,124.9,193.8,124.9,193.9"/>
	<polygon class="st0" points="123,188.8 123,188.8 123,188.8 	"/>
	<path class="st0" d="M118.5,181.8c0.4,0.7,1.3,1.5,1.4,2.4c0.6,0,0.7,0.2,0.9,0.4l-0.8,0.3l0.3,0.1c-0.2,0.2-0.2-0.1-0.4,0.1
		l0.5-0.1c-0.3,0.1,0,0.6-0.7,0.4l0.3,0.8c0,0.2,0.7-0.1,0.5,0.1c-0.2,0.1-0.2,0-0.4,0.1c-0.4,0.8,1.7,0.1,1.5,0.8l-0.1,0
		c0.2,0,0.3,0.2,0.4,0.2c0.7-0.3-0.4,0.1,0-0.3c0.6-0.2,0.4,0.1,0.9-0.1c-0.2,0.2,0.2,0.2,0.3,0.2c-0.3,0.3,0,0.5-0.4,0.8
		c0.2,0,0.9-0.1,1,0.1c-0.5,0.3-0.5,0.1-0.6,0.4l0.4-0.1c0,0.2-0.1,0.2-0.3,0.2c0,0.2,0.6,0,0.4,0.2l-0.4,0c0.2,0.1,0.2,0.2,0.2,0.4
		c-0.2,0.1-0.2,0-0.2-0.1c-0.5,0.3,0.3,0.1,0.3,0.2c0.2-0.1,0.2-0.2,0.6-0.3c0,0.1,0.6,0,0.2,0.3l-0.4,0c0.4,0.1,0.5,0,0.4,0.3
		c0,0-0.1,0-0.2,0.1c0.5,0,0.2,0.4,0.2,0.6l-0.1,0c0.2,0.1,0.5,0,0.5,0c0.2-0.2,0.3-0.2,0.6-0.4c-0.6,0.4,0.8,0,0.5,0.4
		c-0.2,0.1-0.5,0.1-0.3-0.1c-0.7,0.1-1.2,0.3-1.6,0.2c0.2,0.1,0.3,0.2,0,0.2l0.6-0.2c0,0.1,0,0.1,0,0.2c0.4-0.1,0.6-0.4,0.9-0.3
		c0.2,0.1-0.6,0.3-0.3,0.2c0.3,0.2,0.7-0.1,0.5,0.2c-0.1,0-0.2,0-0.1-0.1c-0.2,0.2,0.2,0.4-0.4,0.7c-0.2,0-0.4,0.1-0.3,0l0.1,0
		c-0.6,0,0.2,0.1-0.5,0.3c0.4-0.1,0.4,0.1,0.3,0.2l0.4-0.2c1.4-0.1-0.9,0.3-0.6,0.6c0.4,0.1,0.1-0.1,0.4-0.1c0,0.2-0.4,0.4-0.1,0.5
		c-0.2,0.1-0.3,0.3-0.8,0.5c0.2,0.1-0.1,0.5,0.4,0.4c0.3-0.4-0.6,0,0-0.5l0.5-0.1c0,0.2,0.4,0.3,0.2,0.5c0.1-0.1,0.2-0.1,0.3-0.1
		c0.3,0.2,0.8,0.1,0.7,0.4c-0.4,0.2-0.4,0-0.5-0.1c-0.3,0.3,0,0.2,0,0.5c-0.4,0.2,0-0.2-0.4-0.1l0.2,0.2c0,0,0,0-0.1,0
		c0.6-0.2,0,0.2,0.3,0.3c0.1,0.4,1,0.2,1.6,0.2c-0.2,0.1-0.3,0.2-0.5,0.2c0.2-0.2,0-0.1-0.1-0.1c0.1,0.1-0.5,0.5-0.8,0.5
		c0.3,0.1,0.3-0.2,0.5-0.1l0.1,0.3c0.3-0.2,0.3-0.3,0.6-0.2c0.1,0.1,0.1,0.2,0.1,0.4c-0.2,0-0.5,0.2-0.5,0.1
		c-0.1,0.1-0.1,0.3,0.3,0.2c0.2-0.3,0.4,0.2,0.8-0.1l-0.2,0.3c0,0-0.2,0-0.2-0.1c-0.5,0.2,0.2,0.1,0.3,0.1c-0.1,0.1-0.1,0.3-0.2,0.4
		c0.2,0,0.1,0.2-0.1,0.3c0.1,0.1,0.3-0.1,0.5-0.1l0.1,0.3c-0.3,0.1-1,0.4-1.1,0.4c0.3,0,0.8-0.2,0.8-0.1c-0.6,0.1-0.3,0.4-1,0.5
		c-0.4,0.2-0.2,0.5-0.1,0.6c0.4-0.1,0.2-0.2,0.6-0.4c0.3,0.4,1.5,0,1.4,0.4l0.1-0.1c0.3,0.1,0.2,0.1,0.6,0.1c-0.5,0.1-1.4,0.7-1.1,1
		c0.3-0.1,0.5-0.4,0.9-0.5l0.2,0.2c0,0-0.1,0-0.2,0c0.3,0.1-0.6,0.6,0.1,0.4l-0.7,0.5l0.3-0.2c0.3-0.1,0.4,0.1,0.5,0.1
		c0.4,0.1,0.2,0.3-0.1,0.5c0.2-0.1,0.7-0.4,0.8-0.2c-0.9,0.3-0.2,0.5-0.7,0.6c0,0.1-0.2,0.3,0.2,0.2l-0.5,0.2c0.8-0.2,0.8,0,1,0.2
		c-1,0.3,0.1,0.2-0.8,0.6c0.7-0.2,0.4,0.2,1,0.1c0.1,0.1-0.6,0.3-0.8,0.5l0.3,0c-0.3,0.2-0.3,0.5-0.4,0.7l0.7-0.1l-0.3,0.1
		c0.2,0,0.4,0.1,0.4-0.1l0,0.1c1.3-0.1,0.3,0.1,0.6,0.1c-0.1,0.1-0.2,0.1-0.3,0.1c0,0.1-0.3,0.2-0.5,0.3c0.2-0.1,1.3-0.1,1.5-0.4
		c0.3-0.1,0.5,0,0.4,0.1l-0.6,0.2l0.7-0.1c0.1,0.1-0.2,0.3-0.3,0.4c-0.1-0.1-1.2,0.1-1.1,0.4c-0.1-0.1-0.5-0.1-0.6-0.1
		c0,0.1-0.1,0.1-0.3,0.1c0.3,0.2,0.4-0.1,0.5,0.1c-0.5,0.2-0.7,0.3-0.8,0.5l0.4-0.3c0.1,0,0.1,0,0.2,0c0-0.1,0.1-0.1,0.3-0.2
		c0,0,0.7,0,0.4,0.2c0.8-0.5,0.8,0.2,1.2-0.1c0.2,0,0.2,0.1,0,0.2c-0.5,0-0.6,0.3-1,0.4c0.2,0,0.4-0.4,0.6-0.4
		c0.1,0.1-0.2,0.3-0.4,0.3l-0.1,0l-0.2,0.4c0.3-0.1,0.4-0.2,0.6-0.1c-0.1,0.1,0.1,0.2-0.1,0.3c-0.4,0-0.9,0.3-1,0.2
		c0.1,0.1,0.2,0.4,0.7,0.1l0,0.1c0.2-0.1,0.5-0.2,0.7,0.1l-0.1,0.4l0.5,0.1l-0.2-0.2c0.1,0,0.3-0.2,0.3-0.1
		c-0.2,0.1-0.2,0.1-0.4,0.1c0.1,0.2,0.4,0,0.5,0c0.1,0.1,0,0.1-0.4,0.2c0,0.2,0.1,0.4-0.2,0.6c0.3,0.1,0.1-0.1,0.5-0.1
		c-0.9,0.4-0.2,0.7,0,1c0.8-0.3,0.1,0.1,0.9-0.1c-0.3,0-0.6,0.5-0.9,0.3l0.1,0.1c-0.4,0.2-0.4-0.2-1,0.2c0.1,0.2,1,0.1,0.8,0.4
		c-0.6,0.1,0.2,0.1-0.4,0.2c-0.2,0-0.2-0.1-0.2-0.1l-0.1,0.1c-0.1,0.5,0.7-0.1,1.2,0c0.1,0.2-0.4,0.3-0.7,0.4
		c-0.1,0.1,0,0.2,0.2,0.2c-0.4-0.1,0.3-0.4,0.7-0.4c-0.6,0.3,0,0.4,0.3,0.4c0.6-0.6,0-0.3,0.6-0.8c-0.2,0-0.8,0.2-0.6-0.1
		c0.3,0,0.3-0.1,0.4-0.2c-0.3,0.1-0.2-0.1-0.3-0.1c0.3-0.1,0.8-0.1,0.9-0.3l-0.8,0.2c0.1-0.1,0.6-0.1,0.4-0.3c0.5,0,0.7-0.2,0.9,0
		c0.6-0.5-0.5-0.3-0.8-0.5c0.1,0,0.2,0,0.2,0c-0.2,0-0.2-0.1-0.3-0.1c0.1-0.2,0.4,0,0.6-0.1l-0.1-0.2c0,0,0,0,0.1,0
		c-0.1,0-0.2-0.1,0-0.1c0.3,0,0.6-0.1,0.8-0.1l-0.6-0.1c0.3-0.1,0.4-0.3,0.7-0.2l-0.2-0.3l0.5-0.2c-0.1-0.1-0.2,0-0.3,0.1
		c0.1-0.2-1.1-0.3,0-0.5c-0.5-0.2-0.4-0.3-0.8-0.6c0.6,0.1,0.5-0.5,0.9-0.3c0.2-0.2-0.4-0.1-0.5-0.2c0.2-0.2,0.8-0.3,1-0.2l-0.3-0.1
		l0.1,0l-0.3,0c0.2-0.2,0.5-0.2,0.6-0.4l-0.5,0.1l0.3-0.2c-0.2,0.1-0.3,0.1-0.4,0l0.1,0l-0.1-0.1c0.3,0,0.1-0.2,0.4-0.2
		c0-0.1,0-0.1-0.2-0.3l-0.3,0.1c-0.4-0.2,0.5-0.2,0.5-0.4l-0.4,0.1c0.5-0.5-0.5-0.4-0.2-0.8c0.1,0.1,0.6-0.1,0.4,0
		c-0.2-0.2-0.2-0.5-0.7-0.6c0.5-0.3,0.7-0.3,0.9-0.6c-0.1-0.1-0.1-0.1-0.5-0.1c0.2-0.2-0.2-0.4,0.2-0.5c-0.3,0.1,0-0.2-0.3-0.1
		l0.2-0.1l-0.4,0.1c0.8-0.5-0.6-0.3,0-0.8l0.1,0l-0.2-0.1c0.2-0.1,0.3-0.1,0.5-0.1l-0.1-0.5l-0.3,0.2c-0.1-0.1-0.5,0-0.3-0.2
		c0.6,0,0-0.2,0.4-0.4l0.2,0.1c-0.1-0.1-0.1-0.1-0.5,0c-0.2-0.1,0.7-0.4,0.2-0.4l0,0.1c-0.2,0.1-0.5,0.1-0.6,0
		c0.1,0,0.2-0.2,0.3-0.1c-0.2-0.1-0.1-0.4-0.2-0.4c0.1-0.1,0.4-0.2,0.5-0.2c-0.4-0.2,0-0.2-0.4-0.4l0.2-0.1l-0.3,0l0.4-0.3l-0.3,0.2
		c-0.1-0.1-0.2-0.1-0.2-0.3l0.3-0.1c-0.3-0.2,0.4-0.5-0.1-0.7c0.1,0,0.2,0,0.2,0c-0.6-0.1,0.5-0.4-0.2-0.5c0.1,0,0.2-0.1,0.3-0.1
		l-0.2,0l0.4-0.1l-0.7,0.1l0.4-0.2l-0.2,0c0.8-0.4,0.1-0.4,0.7-0.8l-0.5,0.2c-1.3,0,0.3-1.3-0.4-1.6l0.4-0.1l-0.6,0
		c0.3-0.2,0.4-0.1,0.6-0.2c-0.3-0.2-0.7,0.1-0.9-0.1c0.2-0.2,0.3-0.1,0.5-0.1c-0.3-0.2-0.7-0.5-0.5-0.8c-0.1,0-0.1,0-0.2,0.1
		c-0.3-0.1-0.1-0.4-0.2-0.6c0.2-0.1,0.2,0,0.3,0c0-0.1,0.1-0.2-0.1-0.2l0.4-0.1c0-0.2-0.4-0.3,0-0.5c-0.2,0.1-0.5,0.2-0.5,0.1
		c0.6-0.3-0.4-0.2-0.1-0.6c0.2,0,0.2,0.1,0.2,0.1c0.1-0.2-0.2-0.1-0.4-0.2l0.3-0.1l-0.5-0.3c0.6-0.3-0.2-0.4,0.2-0.6
		c0-0.2-0.2,0.2-0.4,0.1c0.3-0.2-0.2-0.1,0.2-0.3l0.1,0l-0.1-0.1l0.5-0.1c-0.1-0.1-0.6,0-0.9,0.1c0.2-0.2-0.1-0.3,0.3-0.5l0.1,0
		c-0.3-0.3,1-1,0.2-1c0.1,0,0.2-0.1,0.2,0l0-0.2l0.3-0.1l-0.6-0.2l0.2-0.1c0-0.3-0.2-0.6-0.4-0.9l0.1,0c-0.4-0.2,0.1-0.4-0.2-0.5
		c0.1,0,0.1,0,0.1,0l-0.1-0.2l0.2,0c-0.5,0,0.5-0.7,0.1-0.4c-0.2,0-0.5-0.1-0.8,0c-0.1-0.2,0.3-0.2,0.4-0.4c0-0.2-0.4-0.1-0.3-0.4
		l0.2-0.1c-0.1-0.1-0.2-0.1-0.3-0.2l0.1,0c-0.5-0.1,0.5-0.5-0.5-0.4c0.1-0.2-0.1-0.3,0.4-0.4c-0.4-0.2-0.6-0.4-0.9-0.6
		c0.7-0.3-0.1,0,0.3-0.4l-0.4,0.1c-0.2-0.4,0.6-1.2,0.3-1.6l0.4-0.1l-0.4,0c0-0.6,0-1.2-0.1-1.6c-0.2-0.1-0.8-0.1-0.7-0.4l0.1,0
		c-0.3-0.3-0.6-0.6-0.5-1.1c0.2,0,0.3-0.1,0.4-0.1c-0.4,0-0.1-0.2-0.1-0.3l-0.3,0.2c-0.4,0-0.1-0.3,0.2-0.4l-0.5,0
		c0,0,0.1-0.1,0.2-0.1l-0.2,0l0.5-0.2c-0.1,0-0.3-0.2-0.8-0.1c0.2-0.1,0.2-0.3,0.4-0.2l0-0.7l-0.2,0.2c-0.4,0.1-0.7,0-0.5-0.1
		c0.3,0,0.5-0.2,0.8-0.3c-0.2,0-0.3,0.4-0.6,0.4c-0.3,0-0.5-0.2-0.4-0.1l0.2,0c-0.2,0,0.5-0.6,0.4-0.7c-0.3,0-0.1-0.3-0.7-0.1
		c-0.2-0.2,0.4-0.3,0.5-0.3c-0.3,0-0.2-0.3,0.1-0.5c-1,0.2,0.2-0.6-0.6-0.4l0.4-0.3c-0.2,0.1-0.7,0.2-0.8,0.1
		c0.2-0.2,0.6-0.3,0.8-0.4l-0.8,0.1c0.7-0.9-0.1-1.7,0.4-2.6c-0.2-0.3-0.7-0.6-0.7-1l0.1,0l0.1-0.4l-0.3,0.4
		c-0.1-0.1-0.3-0.1-0.3-0.2c0.3-0.5,0.6-1.1,0-1.6c-1-0.1,0.8-0.4,0-0.6c0.1,0,0.2,0,0.3,0c-0.4-0.3-0.6-0.4-1.2-0.7
		c1-0.1-0.1-0.2,0.4-0.3l-0.4,0c0.2-0.1,0.3-0.3,0.6-0.3l-0.5-0.1l0.4-0.1c0-0.2-0.4-0.6,0.4-0.8c-0.7-0.4-0.6-1.2-0.5-1.9
		c-0.3,0-0.4-0.2-0.4-0.4l0.5-0.2c-0.2-0.1-0.8-0.2-0.5-0.4c0.1,0,0.1,0,0.1,0c-0.1-0.1,0.1-0.3-0.3-0.4c0-0.2,0-0.4,0.4-0.4
		c-0.8,0.1-0.2-0.4-0.2-0.4s0-0.1,0-0.4c0-0.2,0.3-0.5,0.4-0.9c0.1-0.8,0.3-1.8,0.3-2.9c0.1-1.1,0-2.2-0.3-3.2
		c-0.3-1-0.8-1.9-1.8-2.7c-0.4-0.1-0.6-0.4-1-0.4c-0.1-0.2,0.6-0.1,0.2-0.2c-0.3,0.1-1-0.3-1.5-0.2l-0.1-0.2
		c-0.3-0.1,0.3,0.2-0.2,0.1l0.7,0.2c-0.1,0.1-0.3,0.1-0.5,0.1c0.3,0.2,1.2,0.4,0.8,0.6l0-0.1c0,0.2-0.5,0-0.6,0l0,0l-0.4,0.1
		c0.3-0.1-0.3-0.4-0.3-0.3c-0.2,0.2,0.2,0,0.2,0.2c0,0.1-0.4,0-0.6,0l0,0.2c-0.3-0.1,0-0.1-0.3-0.1l0.3,0.3
		c-0.9-0.1,0.4,0.3-0.5,0.3c-0.2-0.2-0.3,0-0.6-0.1l0,0.5c-0.1,0-0.2-0.2-0.2-0.1c-0.2,0,0.2,0.2,0.2,0.2c-0.2,0,0,0.3-0.6,0.2
		c-0.4,0.3,0.7,0.2,0.3,0.5c-0.4,0,0-0.2-0.4-0.2l0.1,0.3c-0.2,0-0.5-0.1-0.5-0.2c-0.6,0.8-2.4,1.1-2,1.9c-0.4,0.1-0.3-0.1-0.5-0.2
		c0.5,0.6-1,0.8-0.9,1.3l0.3,0c-0.5,0.3-0.7,0.7-0.7,1.1c0,0.4,0,0.8-0.2,1.2l0.2-0.1c0.3,0.1,0.4,0.3,0.5,0.4
		c-0.2,0-0.7-0.1-0.6,0.1c0.1,0,0.2-0.1,0.4-0.1c-0.9,0.7-0.6,2.1-1,3.2c0.4,1.4-0.1,3.2,0.3,4.6c-0.1-0.2,0.8-0.2,0.6-0.1
		c-1.3,0.7,0.4,0.7-0.5,1.3c0.6,0.7-0.5,1.7,0.7,2.3l-0.4,0.1c-0.2,0.1,0.1,0.1,0.2,0.2l-0.1,0c-0.1,0.3,0.4,0.6,0.2,0.8l0.4-0.1
		c0.1,0.2-0.3,0.2,0,0.3l-0.2,0l0.5,0.1c-0.8,0.2,0,0.5-0.3,0.7c0.2,0.2,0.6,0.5,0.5,0.9c-0.4,0.2-0.3,0.6-0.4,0.9
		c0.2,0.5,0.5,1.1,0.5,1.8l0.5-0.1l0.1,0.2c-0.1,0-0.2,0.1-0.2,0.1c-0.5,0.3,0.3,0.3-0.1,0.5c0.4-0.2,0-0.1,0-0.2
		c0.2-0.2,0.7-0.2,0.5,0l-0.1,0l0.3,0c-0.4,0.1-0.5,0.3-0.9,0.4c0.2,0.5,1,0.7,0.9,1.3c-0.4,0.1,0.2,0.4-0.6,0.5
		c0.4,0.2,0.6-0.2,1.2-0.2c0,0.1,0.2,0.1,0,0.2c-0.2,0-0.4,0.2-0.5,0.2l0.1,0.2c-0.1,0-0.2,0-0.2,0c0.6,0.3-0.3,0.9,0.3,1.2
		c0.3-0.1,0-0.2,0.3-0.2c0.7,0.2-0.4,0.5,0.1,0.7l-0.4,0c0.3,0,0.6,0,0.4,0.3c-0.4,0.2-0.4-0.1-0.6-0.1c0,0.1,0.2,0.4,0.6,0.2
		c0.2,0.1-0.2,0.3-0.3,0.4c0.1,0,0.2-0.2,0.5-0.2c-0.2,0.3-0.1,0.6,0,0.9c-0.1,0-0.3,0.1-0.3,0.1
		C119.2,181.3,118.3,181.6,118.5,181.8"/>
	<path class="st0" d="M125.2,194.8l0-0.1c-0.1,0-0.2,0.1-0.3,0.1L125.2,194.8z"/>
	<path class="st0" d="M123.8,189.8c0,0-0.1,0-0.1,0C123.7,189.8,123.8,189.8,123.8,189.8"/>
	<path class="st0" d="M122.7,188.9c0.1,0.1,0.2-0.1,0.3-0.1C122.9,188.8,122.8,188.8,122.7,188.9"/>
	<path class="st0" d="M127.3,197.1c0,0-0.1,0-0.2,0C127.1,197.1,127.2,197.1,127.3,197.1"/>
	<path class="st0" d="M129.4,204.7C129.4,204.6,129.4,204.6,129.4,204.7C129.4,204.6,129.4,204.6,129.4,204.7"/>
	<path class="st0" d="M129.9,204C129.9,204,129.9,204,129.9,204C129.8,204,129.9,204,129.9,204"/>
	<path class="st0" d="M126.5,195.3c0,0-0.1,0-0.2,0C126.3,195.3,126.4,195.3,126.5,195.3"/>
	<path class="st0" d="M129.7,203.9l0-0.1C129.7,203.8,129.7,203.8,129.7,203.9L129.7,203.9z"/>
	<path class="st0" d="M129.4,204.8c0,0,0-0.1,0-0.1C129.3,204.8,129.3,204.8,129.4,204.8"/>
	<path class="st0" d="M128.7,199.6C128.7,199.6,128.7,199.6,128.7,199.6C128.5,199.6,128.6,199.6,128.7,199.6"/>
	<polygon class="st0" points="128.8,203.7 128.8,203.7 128.7,203.7 	"/>
	<path class="st0" d="M129.3,205.3C129.3,205.3,129.3,205.3,129.3,205.3c-0.1,0-0.1,0-0.1,0C129.2,205.3,129.3,205.3,129.3,205.3"/>
	<path class="st0" d="M128.6,201.4c0.2,0,0.3-0.1,0.4-0.1C128.9,201.3,128.8,201.3,128.6,201.4"/>
	<path class="st0" d="M219.1,160.2c0-0.1,0.1-0.1,0.2-0.2C219.2,160.1,219.1,160.1,219.1,160.2"/>
	<path class="st0" d="M214.8,155.1l0.1-0.1C214.9,155,214.8,155.1,214.8,155.1"/>
	<path class="st0" d="M221.7,163.1L221.7,163.1c0,0.1,0.1,0.1,0.1,0.2L221.7,163.1z"/>
	<path class="st0" d="M204.1,146.2L204.1,146.2C204.2,146.2,204.2,146.2,204.1,146.2"/>
	<path class="st0" d="M210.4,151.5c-0.1,0.1-0.1,0.1-0.2,0.1C210.3,151.6,210.3,151.6,210.4,151.5"/>
	<path class="st0" d="M220,168.7l0.1-0.4C220,168.5,220,168.6,220,168.7"/>
	<path class="st0" d="M223.7,170C223.7,170,223.7,170,223.7,170C223.7,170,223.7,170,223.7,170"/>
	<path class="st0" d="M223.5,167.9c0,0-0.1,0-0.2,0.1C223.4,168,223.5,168,223.5,167.9"/>
	<path class="st0" d="M223.3,168L223.3,168C223.3,167.9,223.3,167.9,223.3,168"/>
	<path class="st0" d="M161.2,124.3c-0.1-0.1-0.3,0.1-0.5,0.3L161.2,124.3z"/>
	<path class="st0" d="M193.6,140l0.1-0.1C193.6,139.9,193.6,139.9,193.6,140"/>
	<path class="st0" d="M159.4,127l0-0.1C159.4,127,159.4,127,159.4,127"/>
	<path class="st0" d="M217.9,168.3c-0.3,0.2-0.2-0.3-0.4,0C217.6,168.3,217.5,168.6,217.9,168.3"/>
	<path class="st0" d="M185.2,151L185.2,151C185.2,151,185.2,151,185.2,151"/>
	<path class="st0" d="M159.4,127l0,0.1c0-0.1,0-0.1,0.1-0.2C159.5,127,159.5,127.1,159.4,127"/>
	<path class="st0" d="M182.6,133.9L182.6,133.9C182.6,133.8,182.6,133.8,182.6,133.9L182.6,133.9z"/>
	<path class="st0" d="M182.2,133c0.1,0,0.1,0,0.2,0C182.4,132.9,182.3,132.9,182.2,133"/>
	<path class="st0" d="M160.7,124.6l-0.3,0.2C160.5,124.8,160.6,124.7,160.7,124.6"/>
	<path class="st0" d="M175.7,130.1C175.8,130.1,175.8,130.1,175.7,130.1C175.8,130.1,175.8,130.1,175.7,130.1"/>
	<path class="st0" d="M210.8,152c0,0,0,0.1,0,0.1C210.8,152,210.9,151.9,210.8,152"/>
	<polygon class="st0" points="201.7,157.7 201.7,157.7 201.7,157.7 	"/>
	<path class="st0" d="M202.2,157.4c0-0.1-0.3,0.1-0.4,0.3C201.8,157.7,201.9,157.7,202.2,157.4"/>
	<path class="st0" d="M201.3,157.2C201.4,157.3,201.4,157.3,201.3,157.2C201.4,157.3,201.4,157.3,201.3,157.2"/>
	<path class="st0" d="M205.4,160.6L205.4,160.6C205.4,160.6,205.4,160.6,205.4,160.6L205.4,160.6z"/>
	<path class="st0" d="M204.5,160.1c0-0.1,0-0.1,0-0.2C204.5,160,204.5,160.1,204.5,160.1"/>
	<polygon class="st0" points="198.6,156.8 198.7,156.8 198.6,156.8 	"/>
	<path class="st0" d="M181.2,145.4c0.7,0.2,1.8,0.2,2.3,0.6c0.4-0.4,0.6-0.3,0.9-0.3l-0.3,0.6l0.3-0.1c0,0.2-0.2,0-0.2,0.3l0.3-0.4
		c-0.1,0.2,0.3,0.4-0.2,0.7l0.6,0.4c0.1,0.1,0.4-0.5,0.4-0.2c-0.1,0.2-0.1,0.1-0.2,0.3c0.2,0.7,1.2-0.9,1.5-0.4l-0.1,0.1
		c0.2-0.1,0.3,0,0.3-0.1c0.3-0.7-0.3,0.3-0.2-0.1c0.3-0.5,0.3-0.2,0.5-0.6c0,0.2,0.2,0,0.3,0c0,0.4,0.3,0.3,0.2,0.8
		c0.2-0.1,0.5-0.6,0.7-0.5c-0.1,0.5-0.2,0.4-0.2,0.6l0.2-0.3c0.1,0.1,0,0.2-0.1,0.3c0.1,0.1,0.4-0.4,0.4-0.1l-0.3,0.2
		c0.2,0,0.2,0,0.4,0.2c-0.1,0.2-0.2,0.1-0.2,0c-0.2,0.5,0.3-0.1,0.3,0c0.1-0.1,0-0.3,0.2-0.5c0.1,0.1,0.4-0.3,0.3,0.1l-0.3,0.2
		c0.3-0.1,0.3-0.3,0.5-0.1c0,0-0.1,0.1-0.1,0.2c0.4-0.3,0.3,0.1,0.5,0.3l-0.1,0.1c0.1-0.1,0.3-0.3,0.4-0.3c0-0.2,0.1-0.3,0.2-0.6
		c-0.1,0.6,0.6-0.4,0.6,0c-0.1,0.2-0.3,0.3-0.2,0.1c-0.4,0.5-0.6,0.9-0.9,1.1c0.2-0.1,0.3-0.1,0.2,0.1l0.3-0.5
		c0.1,0,0.1,0.1,0.1,0.1c0.2-0.3,0.2-0.6,0.4-0.7c0.2-0.1-0.2,0.5-0.1,0.3c0.3-0.1,0.4-0.5,0.5-0.2c0,0-0.1,0.1-0.1,0
		c0,0.3,0.4,0.1,0.1,0.7c-0.1,0.1-0.2,0.3-0.2,0.2l0.1-0.1c-0.4,0.3,0.2,0-0.2,0.4c0.2-0.3,0.3-0.1,0.4,0l0.2-0.4
		c0.9-0.9-0.4,0.7-0.1,0.7c0.3-0.1,0-0.1,0.2-0.3c0.1,0.1-0.1,0.5,0.2,0.4c0,0.2,0,0.4-0.3,0.8c0.2-0.1,0.2,0.4,0.5,0
		c0-0.4-0.4,0.3-0.3-0.3l0.3-0.3c0.1,0.1,0.4,0,0.5,0.2c0-0.1,0.1-0.2,0.1-0.3c0.3,0,0.6-0.4,0.7-0.1c-0.2,0.4-0.3,0.2-0.4,0.2
		c0,0.4,0.1,0.1,0.3,0.3c-0.2,0.3-0.1-0.1-0.3,0.2l0.3,0c0,0,0,0,0,0.1c0.3-0.5,0.1,0.1,0.4,0.1c0.3,0.2,0.8-0.4,1.2-0.7
		c0,0.2-0.1,0.3-0.2,0.4c0.1-0.3,0-0.1-0.1,0c0.1,0-0.1,0.6-0.3,0.8c0.3,0,0.1-0.3,0.3-0.4l0.2,0.2c0.1-0.3,0.1-0.4,0.3-0.5
		c0.2,0,0.2,0.1,0.3,0.2c-0.1,0.1-0.2,0.4-0.3,0.3c0,0.1,0.1,0.2,0.3,0c0-0.3,0.4-0.1,0.5-0.5l0,0.3c0,0-0.1,0.1-0.2,0.1
		c-0.2,0.4,0.2,0,0.3,0c0,0.1,0.1,0.2,0,0.4c0.1-0.1,0.2,0.1,0.1,0.3c0.1,0,0.2-0.2,0.3-0.4l0.2,0.2c-0.1,0.2-0.5,0.8-0.6,0.9
		c0.2-0.1,0.4-0.6,0.6-0.5c-0.3,0.4,0,0.4-0.5,0.9c-0.1,0.4,0.1,0.5,0.3,0.5c0.3-0.3-0.4-0.3-0.1-0.6c0.4,0.1,0.8-0.8,0.8-0.5l0-0.1
		c0-0.1,0.6-0.1,0.9-0.3c-0.3,0.4-0.4,1.2-0.1,1.3c0.2-0.2,0.2-0.5,0.5-0.8l0.3,0.1c0,0-0.1,0.1-0.1,0.1c0.3,0-0.1,0.7,0.3,0.3
		l-0.3,0.7l0.1-0.3c0.2-0.2,0.4-0.1,0.5-0.2c0.3-0.1,0.3,0.1,0.2,0.4c0.1-0.2,0.3-0.6,0.5-0.6c-0.5,0.7,0.1,0.4-0.1,0.8
		c0.1,0,0,0.3,0.2,0l-0.3,0.4c0.4-0.6,0.6-0.4,0.8-0.4c-0.6,0.8,0.2,0.1-0.2,0.8c0.4-0.5,0.4,0,0.8-0.4c0.1,0.1-0.2,0.5-0.3,0.7
		l0.2-0.2c-0.1,0.3,0.1,0.5,0.1,0.7l0.5-0.4l-0.1,0.2c0.1-0.1,0.3-0.1,0.3-0.3l0,0.1c0.4-0.5,0.2-0.1,0.5-0.2c0,0.1-0.1,0.2-0.2,0.3
		c0.1,0.1-0.2,0.3-0.3,0.5c0.1-0.2,0.9-0.7,0.9-1.1c0.1-0.2,0.4-0.3,0.4-0.1l-0.3,0.5l0.4-0.4c0.1,0,0,0.3,0,0.4
		c-0.1,0-0.8,0.7-0.6,0.9c-0.2,0-0.4,0.2-0.5,0.2c0,0.1,0,0.1-0.2,0.2c0.3,0,0.3-0.2,0.5-0.2c-0.3,0.4-0.4,0.6-0.3,0.8l0.1-0.4
		c0,0,0.1-0.1,0.1-0.1c0-0.1,0-0.1,0.1-0.3c0,0,0.6-0.4,0.4-0.1c0.3-0.7,0.7-0.3,0.8-0.7c0.1-0.1,0.2,0,0.1,0.2
		c-0.4,0.2-0.3,0.5-0.5,0.8c0.1-0.1,0.1-0.4,0.3-0.5c0.1,0,0,0.3-0.1,0.5l-0.1,0l0,0.3c0.2-0.2,0.1-0.4,0.3-0.4c0,0.1,0.2,0.1,0,0.2
		c-0.3,0.2-0.5,0.6-0.7,0.6c0.1,0,0.4,0.2,0.6-0.3l0.1,0.1c0.1-0.2,0.1-0.6,0.4-0.5l-0.1,0.1l0.4-0.2l-0.1,0.2
		c0.1-0.1,0.2-0.2,0.2-0.1c-0.1,0.1-0.1,0.2-0.2,0.4c0.2,0.1,0.3-0.1,0.4-0.2c0.1,0,0.1,0.1-0.2,0.3c0.1,0.1,0.3,0.2,0.2,0.5
		c0.3-0.1,0-0.1,0.3-0.3c-0.4,0.8,0.2,0.7,0.6,0.8c0.4-0.6,0.1,0,0.6-0.5c-0.2,0.1-0.2,0.6-0.5,0.6l0.2,0c-0.2,0.4-0.4,0.1-0.7,0.6
		c0.2,0.1,0.8-0.5,0.8-0.1c-0.4,0.4,0.2,0-0.2,0.4c-0.2,0.1-0.2,0-0.2,0l0,0.1c0.2,0.4,0.5-0.4,0.9-0.6c0.2,0.1-0.1,0.4-0.3,0.6
		c0,0.1,0.1,0.1,0.2,0.1c-0.3,0.2,0-0.4,0.3-0.6c-0.3,0.5,0.2,0.3,0.5,0.1c0.2-0.7-0.2-0.2,0.1-0.9c-0.2,0.1-0.5,0.5-0.5,0.2
		c0.3-0.1,0.2-0.2,0.2-0.3c-0.2,0.3-0.2,0-0.3,0.1c0.1-0.2,0.6-0.5,0.5-0.7l-0.5,0.5c0-0.1,0.4-0.4,0.1-0.4c0.3-0.2,0.4-0.5,0.6-0.4
		c0.2-0.7-0.5,0-0.9,0.1c0,0,0.1-0.1,0.2-0.1c-0.2,0.1-0.2,0.1-0.3,0.1c0-0.2,0.3-0.2,0.4-0.4l-0.2-0.1c0,0,0,0,0,0
		c-0.1,0-0.2,0.1-0.1-0.1c0.2-0.1,0.4-0.3,0.6-0.4l-0.5,0.2c0.2-0.2,0.1-0.5,0.4-0.5l-0.3-0.2l0.3-0.4c-0.1,0-0.2,0.1-0.2,0.2
		c0-0.2-1,0.3-0.3-0.4c-0.5,0.1-0.5,0-0.9-0.1c0.5-0.2,0.1-0.6,0.5-0.6c0-0.3-0.4,0.1-0.5,0.1c0-0.2,0.4-0.6,0.6-0.7l-0.3,0.1
		l0.1-0.1l-0.3,0.1c0.1-0.3,0.3-0.4,0.2-0.6l-0.3,0.3l0.1-0.3c-0.1,0.2-0.2,0.2-0.3,0.2l0.1-0.1l-0.2,0c0.3-0.1,0-0.1,0.2-0.4
		c-0.1-0.1-0.1-0.1-0.3-0.1l-0.2,0.3c-0.4,0.1,0.3-0.4,0.1-0.5l-0.2,0.3c0.1-0.7-0.6,0-0.6-0.5c0.2,0,0.4-0.3,0.3-0.3
		c-0.2,0-0.4-0.3-0.8-0.1c0.2-0.5,0.3-0.6,0.3-0.9c-0.1-0.1-0.2,0-0.4,0.2c0-0.2-0.4-0.2-0.2-0.5c-0.2,0.2-0.1-0.1-0.3,0l0.1-0.1
		l-0.2,0.3c0.3-0.8-0.6,0.1-0.4-0.6l0.1-0.1l-0.2,0.1c0.1-0.1,0.2-0.2,0.3-0.4l-0.4-0.4l-0.1,0.3c-0.1,0-0.4,0.2-0.3,0
		c0.5-0.3-0.1-0.1,0.1-0.5l0.2-0.1c-0.1-0.1-0.1-0.1-0.3,0.2c-0.2,0,0.3-0.6-0.1-0.4l0.1,0.1c-0.1,0.2-0.3,0.4-0.4,0.3
		c0-0.1,0.1-0.2,0.1-0.2c-0.2,0-0.3-0.3-0.4-0.2c0-0.1,0.2-0.3,0.2-0.4c-0.4,0.1-0.1-0.1-0.5-0.1l0.1-0.2l-0.2,0.1l0.1-0.4l-0.1,0.2
		c-0.1,0-0.2,0.1-0.3-0.1l0.2-0.2c-0.3,0,0-0.6-0.5-0.4c0-0.1,0.1-0.1,0.1-0.1c-0.5,0.2,0.1-0.6-0.4-0.2c0.1-0.1,0.1-0.2,0.2-0.3
		l-0.2,0.1l0.2-0.3l-0.4,0.4l0.2-0.4l-0.1,0.1c0.3-0.7-0.2-0.3,0-0.9l-0.3,0.4c-0.9,0.6-0.5-1.1-1.3-0.9l0.2-0.3l-0.4,0.3
		c0.1-0.3,0.2-0.3,0.3-0.4c-0.3,0.1-0.4,0.4-0.7,0.4c0-0.3,0.2-0.2,0.3-0.3c-0.3,0-0.8,0-0.8-0.3c0,0-0.1,0.1-0.1,0.1
		c-0.2,0.1-0.3-0.2-0.5-0.3c0.1-0.2,0.2-0.2,0.2-0.2c0-0.1-0.1-0.2-0.2-0.1l0.2-0.3c-0.1-0.1-0.5,0-0.3-0.4
		c-0.1,0.1-0.2,0.4-0.3,0.3c0.3-0.6-0.4,0-0.4-0.4c0.1-0.1,0.2-0.1,0.2-0.1c0-0.2-0.2,0-0.4,0.1l0.2-0.2l-0.6,0.1
		c0.3-0.6-0.4-0.1-0.2-0.5c-0.1-0.1,0,0.3-0.2,0.3c0.1-0.2-0.2,0,0-0.3l0,0l-0.1,0l0.3-0.3c-0.2,0-0.4,0.3-0.6,0.6
		c0-0.3-0.2-0.2-0.1-0.5l0.1-0.1c-0.4,0,0.1-1.2-0.5-0.8c0-0.1,0.1-0.1,0.1-0.1l-0.2-0.1l0.2-0.2l-0.5,0.2l0.1-0.2
		c-0.2-0.2-0.5-0.3-0.8-0.4l0.1-0.1c-0.4,0.1-0.2-0.3-0.5-0.2c0,0,0.1-0.1,0.1-0.1l-0.2-0.1l0.1-0.1c-0.4,0.3-0.1-0.7-0.2-0.3
		c-0.2,0.1-0.4,0.2-0.6,0.5c-0.2-0.1,0.1-0.3,0-0.5c-0.1-0.1-0.3,0.2-0.4-0.1l0.1-0.2c-0.1,0-0.2,0.1-0.4,0l0.1-0.1
		c-0.4,0.2,0-0.7-0.6,0c0-0.2-0.2-0.2,0-0.5c-0.4,0.1-0.7,0.1-1,0.1c0.3-0.6-0.1,0-0.1-0.4l-0.2,0.3c-0.4-0.2-0.4-1.2-0.9-1.3
		l0.2-0.3l-0.3,0.3c-0.4-0.4-0.9-0.8-1.2-1c-0.2,0.1-0.6,0.4-0.7,0.2l0,0c-0.4,0-0.8,0-1.1-0.4c0.1-0.1,0.1-0.2,0.2-0.3
		c-0.3,0.3-0.2-0.1-0.3-0.1l0,0.3c-0.3,0.2-0.2-0.1-0.2-0.4l-0.3,0.3c0,0,0-0.1,0-0.1l-0.1,0.2l0.1-0.5c-0.1,0.1-0.3,0.1-0.6,0.4
		c0.1-0.1,0-0.3,0.1-0.3l-0.5-0.4l0,0.2c-0.2,0.3-0.4,0.4-0.4,0.2c0.2-0.2,0.2-0.4,0.3-0.7c-0.2,0.1-0.1,0.3-0.2,0.5
		c-0.2,0.2-0.5,0.2-0.5,0l0.1-0.1c-0.2,0,0-0.5-0.1-0.6c-0.2,0.2-0.2-0.1-0.5,0.5c-0.2,0,0.1-0.4,0.1-0.5c-0.2,0.2-0.4-0.1-0.3-0.4
		c-0.5,0.7-0.3-0.5-0.7,0.1l0.1-0.4c-0.1,0.2-0.3,0.6-0.5,0.6c0-0.2,0.2-0.5,0.2-0.7l-0.4,0.6c-0.2-1-1.3-1-1.7-1.9
		c-0.4,0-0.9,0.1-1.2-0.2l0.1-0.1l-0.3-0.4l0.1,0.4c-0.1,0-0.2,0.1-0.3,0.1c-0.2-0.5-0.6-1.1-1.2-1c-0.7,0.6,0.1-0.8-0.4-0.4
		c0.1-0.1,0.1-0.2,0.2-0.2c-0.4,0.1-0.7,0.1-1.2,0.4c0.4-0.7-0.2-0.1,0-0.5l-0.2,0.3c0-0.2-0.1-0.4,0-0.6l-0.3,0.3l0.2-0.3
		c-0.2-0.1-0.7-0.1-0.5-0.8c-0.7,0.2-1.3-0.3-1.8-0.7c-0.2,0.2-0.4,0.2-0.5,0.1l0.1-0.4c-0.2,0-0.6,0.4-0.6,0.1c0,0,0-0.1,0.1-0.1
		c-0.2,0-0.2-0.3-0.5,0c-0.1-0.1-0.2-0.4,0.1-0.7c-0.3,0.6-0.3-0.2-0.3-0.2s-1.6-1.4-3.7-2.4c-2.1-1.1-4.5-1.9-6.4-0.8
		c-0.2,0.3-0.5,0.4-0.7,0.8c-0.2,0,0.1-0.5-0.1-0.2c0.1,0.3-0.5,0.7-0.6,1.2l-0.2,0c-0.1,0.2,0.3-0.2,0,0.2l0.4-0.5
		c0,0.1,0-0.4-0.1-0.2c0.2-0.2,0.7-1.2,0.7-1.2l-0.1,0c0.2,0-0.1,1.1-0.1,1.2l0,0.3l0,0.5c0-0.2-0.4,0.2-0.3,0.2
		c0.1,0.3,0-0.1,0.2-0.1c0.1,0-0.1,0.3-0.2,0.5l0.2,0.1c-0.2,0.3-0.1-0.1-0.2,0.2l0.4-0.2c-0.4,0.7,0.4-0.2,0.1,0.5
		c-0.2,0.1-0.1,0.2-0.3,0.4l0.4,0.2c0,0.1-0.2,0.1-0.1,0.1c0,0.2,0.2-0.1,0.2-0.1c-0.1,0.2,0.3,0.1,0,0.6c0.1,0.4,0.4-0.5,0.5-0.1
		c-0.1,0.3-0.2,0-0.3,0.3l0.3,0c-0.1,0.1-0.3,0.4-0.4,0.3c0.4,0.7,0,2.3,0.8,2.3c-0.1,0.4-0.2,0.2-0.4,0.4c0.7-0.2,0.2,1,0.6,1.2
		l0.2-0.3c0.1,1.1,1,1,1.4,1.6l0-0.2c0.2-0.2,0.4-0.2,0.5-0.2c-0.1,0.1-0.4,0.5-0.1,0.5c0-0.1,0-0.3,0.1-0.4c0.1,1,1.3,1.4,1.9,2.1
		c1.2,0.4,2.2,1.5,3.4,2c-0.2-0.1,0.2-0.7,0.3-0.5c-0.2,1.3,0.7,0.1,0.7,1.1c0.8,0,0.9,1.2,1.9,0.7l-0.2,0.3c0,0.2,0.2,0,0.3,0
		l0,0.1c0.2,0.2,0.6,0,0.6,0.3l0.2-0.4c0.1,0-0.1,0.3,0.2,0.2l-0.1,0.2l0.3-0.3c-0.3,0.6,0.3,0.2,0.3,0.6c0.2,0,0.7-0.1,0.9,0.1
		c-0.1,0.3,0.2,0.5,0.3,0.8c0.4,0.1,1,0.3,1.5,0.7l0.2-0.4l0.1,0c0,0.1-0.1,0.1-0.1,0.2c-0.1,0.5,0.4,0,0.3,0.4
		c0.1-0.4-0.1-0.1-0.1-0.2c0-0.2,0.3-0.6,0.3-0.3l-0.1,0.1l0.2-0.2c-0.2,0.3-0.1,0.5-0.3,0.8c0.5,0.1,1-0.3,1.4,0.1
		c-0.2,0.3,0.4,0.1,0,0.6c0.4-0.1,0.2-0.5,0.6-0.9c0.1,0,0.2-0.1,0.1,0.2c-0.1,0.1-0.1,0.4-0.2,0.4l0.2,0c0,0.1-0.1,0.1-0.1,0.2
		c0.5-0.2,0.4,0.7,0.9,0.5c0.1-0.2-0.1-0.1,0-0.3c0.6-0.3,0.1,0.5,0.5,0.4l-0.2,0.3c0.2-0.2,0.4-0.4,0.4-0.1
		c-0.2,0.4-0.3,0.2-0.5,0.4c0.1,0.1,0.4,0.1,0.5-0.2c0.2,0,0.1,0.3,0.1,0.4c0-0.1,0-0.3,0.2-0.4c0.1,0.3,0.3,0.4,0.5,0.6
		c0,0.1-0.1,0.2-0.1,0.3C181.3,144.6,180.9,145.4,181.2,145.4"/>
	<path class="st0" d="M205.5,160.8l-0.1-0.1c-0.1,0.1-0.1,0.2-0.3,0.3L205.5,160.8z"/>
	<path class="st0" d="M200.3,157.1c0,0-0.1,0.1-0.1,0.1C200.2,157.2,200.2,157.2,200.3,157.1"/>
	<path class="st0" d="M198.5,157.2c0.2-0.1,0.1-0.2,0.2-0.4C198.6,156.9,198.5,157,198.5,157.2"/>
	<path class="st0" d="M209.3,161.5c0,0-0.1,0.1-0.2,0.2C209.2,161.6,209.2,161.5,209.3,161.5"/>
	<path class="st0" d="M217,167.6C217,167.6,217,167.5,217,167.6C217,167.5,217,167.6,217,167.6"/>
	<path class="st0" d="M217.1,166.5c0,0-0.1,0-0.1,0C217,166.6,217.1,166.6,217.1,166.5"/>
	<path class="st0" d="M207.1,160.3c0,0-0.1,0-0.2,0.1C207,160.4,207.1,160.4,207.1,160.3"/>
	<path class="st0" d="M216.8,166.6l-0.1-0.1c0,0,0,0.1-0.1,0.1L216.8,166.6z"/>
	<path class="st0" d="M217.1,167.8c0,0-0.1-0.1-0.1-0.2C217,167.8,217,167.8,217.1,167.8"/>
	<path class="st0" d="M212.7,162.9C212.6,162.9,212.6,162.9,212.7,162.9C212.4,163.1,212.5,163,212.7,162.9"/>
	<polygon class="st0" points="215.8,167 215.8,166.9 215.7,167 	"/>
	<path class="st0" d="M217.5,168.3c0,0-0.1,0-0.1,0c0,0,0,0.1,0,0.1C217.4,168.4,217.4,168.3,217.5,168.3"/>
	<path class="st0" d="M213.9,164.9c0.1-0.2,0.2-0.3,0.3-0.3C214.1,164.5,214,164.6,213.9,164.9"/>
	<path class="st0" d="M0,140.9c1.2,0.5,2.5,0.7,3.9,0.6C2.5,141.4,1.3,141.2,0,140.9"/>
	<path class="st0" d="M91.2,191.4c0.1,0,0.1,0,0.2,0.1C91.3,191.5,91.3,191.5,91.2,191.4"/>
	<path class="st0" d="M93.9,188l0.1,0.1C94,188.1,93.9,188,93.9,188"/>
	<path class="st0" d="M89.8,193.5C89.8,193.5,89.8,193.5,89.8,193.5c-0.1,0-0.1,0.1-0.2,0.1L89.8,193.5z"/>
	<path class="st0" d="M97.7,180.1L97.7,180.1C97.7,180.1,97.7,180.1,97.7,180.1"/>
	<path class="st0" d="M95.3,184.8c-0.1,0-0.1-0.1-0.2-0.1C95.1,184.7,95.1,184.7,95.3,184.8"/>
	<path class="st0" d="M84,192.9l0.4,0.1C84.3,192.9,84.1,192.9,84,192.9"/>
	<path class="st0" d="M84.8,195.6C84.8,195.6,84.8,195.6,84.8,195.6C84.8,195.6,84.8,195.6,84.8,195.6"/>
	<path class="st0" d="M86.5,195.2c0,0-0.1-0.1-0.1-0.1C86.4,195.1,86.4,195.2,86.5,195.2"/>
	<path class="st0" d="M86.3,195.1L86.3,195.1C86.4,195.1,86.3,195.1,86.3,195.1"/>
	<path class="st0" d="M100.8,149.8c0-0.1-0.2-0.2-0.5-0.3L100.8,149.8z"/>
	<path class="st0" d="M99.3,172.6l0.2,0C99.4,172.6,99.4,172.6,99.3,172.6"/>
	<path class="st0" d="M97.6,149.2L97.6,149.2C97.6,149.1,97.6,149.1,97.6,149.2"/>
	<path class="st0" d="M83.5,191.4c-0.3-0.2,0.1-0.2-0.2-0.3C83.3,191.2,83,191.2,83.5,191.4"/>
	<path class="st0" d="M85.7,168.5L85.7,168.5C85.7,168.5,85.7,168.5,85.7,168.5"/>
	<path class="st0" d="M97.6,149.2L97.6,149.2C97.6,149.2,97.6,149.2,97.6,149.2C97.6,149.2,97.6,149.2,97.6,149.2"/>
	<path class="st0" d="M100.8,164.8L100.8,164.8C100.8,164.8,100.8,164.8,100.8,164.8L100.8,164.8z"/>
	<path class="st0" d="M101.5,164.5c0,0,0.1,0.1,0.1,0.1C101.6,164.5,101.5,164.5,101.5,164.5"/>
	<path class="st0" d="M100.4,149.5l-0.3-0.2C100.1,149.4,100.2,149.5,100.4,149.5"/>
	<path class="st0" d="M101.6,159.9C101.6,159.9,101.6,159.9,101.6,159.9C101.7,159.9,101.7,159.9,101.6,159.9"/>
	<path class="st0" d="M95,185C95,185,95,185.1,95,185C95,185.1,95.1,185.1,95,185"/>
	<polygon class="st0" points="86,179.8 86,179.8 86,179.8 	"/>
	<path class="st0" d="M86.4,180c0.1,0-0.2-0.2-0.4-0.3C86,179.8,86.1,179.9,86.4,180"/>
	<path class="st0" d="M86.3,179.5L86.3,179.5C86.3,179.5,86.3,179.5,86.3,179.5"/>
	<path class="st0" d="M84.8,182.5L84.8,182.5C84.9,182.5,84.9,182.5,84.8,182.5L84.8,182.5z"/>
	<path class="st0" d="M84.9,181.8c0.1,0,0.1,0,0.2,0C85,181.8,85,181.8,84.9,181.8"/>
	<polygon class="st0" points="85.6,177.7 85.6,177.7 85.6,177.7 	"/>
	<path class="st0" d="M84,171.2c0.1,0.6,0.7,1.5,0.4,2.1c0.7,0.3,0.7,0.5,0.9,0.7l-1-0.2l0.3,0.2c-0.3,0-0.2-0.2-0.6-0.1l0.6,0.2
		c-0.4-0.1-0.3,0.4-1-0.1l-0.1,0.6c-0.1,0.1,0.8,0.2,0.5,0.3c-0.3,0-0.2-0.1-0.6-0.2c-0.8,0.3,1.8,0.9,1.3,1.2l-0.1-0.1
		c0.3,0.1,0.2,0.3,0.3,0.3c1,0.2-0.5-0.2,0.1-0.2c0.8,0.2,0.4,0.3,1.1,0.4c-0.3,0,0.1,0.2,0.2,0.3c-0.6,0-0.2,0.3-0.9,0.3
		c0.3,0.1,1.1,0.4,1.1,0.5c-0.7,0-0.6-0.2-0.9-0.1l0.5,0.1c-0.1,0.1-0.2,0.1-0.5,0c0,0.1,0.7,0.3,0.3,0.3l-0.5-0.2
		c0.2,0.2,0.1,0.2,0,0.4c-0.3-0.1-0.2-0.1-0.2-0.2c-0.7-0.1,0.3,0.2,0.2,0.3c0.2,0,0.3-0.1,0.8,0.1c-0.1,0.1,0.6,0.3,0,0.3l-0.5-0.2
		c0.3,0.3,0.6,0.2,0.4,0.4c0,0-0.2,0-0.3-0.1c0.6,0.3,0,0.3-0.1,0.5l-0.1-0.1c0.1,0.1,0.6,0.2,0.5,0.3c0.3,0,0.4,0,0.9,0.1
		c-0.8,0,0.9,0.4,0.4,0.5c-0.3-0.1-0.6-0.2-0.3-0.2c-0.8-0.3-1.5-0.4-1.9-0.7c0.2,0.1,0.3,0.3-0.1,0.2l0.8,0.2c0,0.1,0,0.1-0.1,0.1
		c0.5,0.1,0.8,0.1,1.1,0.3c0.2,0.2-0.8-0.1-0.5,0c0.3,0.3,0.8,0.3,0.5,0.4c-0.1,0-0.2-0.1-0.1-0.1c-0.3,0.1,0.1,0.4-0.9,0.2
		c-0.2-0.1-0.5-0.1-0.4-0.2l0.1,0c-0.6-0.3,0.2,0.2-0.7-0.1c0.5,0.1,0.3,0.3,0.2,0.3l0.6,0.1c1.6,0.7-1.1-0.3-1,0
		c0.3,0.3,0.2,0,0.5,0.2c-0.1,0.1-0.6,0-0.4,0.2c-0.2,0-0.6,0-1.2-0.1c0.2,0.2-0.4,0.2,0.2,0.4c0.6,0-0.6-0.3,0.3-0.3l0.6,0.2
		c-0.1,0.1,0.2,0.4,0,0.4c0.1,0,0.3,0,0.4,0.1c0.2,0.3,0.8,0.5,0.6,0.6c-0.6-0.1-0.5-0.2-0.5-0.3c-0.5,0-0.1,0.1-0.3,0.3
		c-0.5-0.1,0.1-0.1-0.4-0.3l0.1,0.3c0,0-0.1,0-0.1,0c0.8,0.2-0.1,0.1,0.1,0.3c-0.1,0.3,1,0.6,1.6,1c-0.2,0-0.4,0-0.7-0.1
		c0.4,0,0.1,0-0.1-0.1c0.1,0.1-0.9,0-1.2-0.1c0.2,0.2,0.5,0,0.7,0.2l-0.1,0.2c0.4,0.1,0.5,0,0.8,0.2c0.1,0.1,0,0.2-0.1,0.3
		c-0.2-0.1-0.7-0.1-0.6-0.2c-0.2,0-0.2,0.1,0.2,0.3c0.4,0,0.3,0.3,1,0.4l-0.4,0c0,0-0.3-0.1-0.2-0.1c-0.7-0.1,0.2,0.2,0.2,0.2
		c-0.1,0-0.2,0.1-0.5,0.1c0.2,0.1,0,0.2-0.3,0.1c0.1,0.1,0.4,0.1,0.6,0.2l-0.1,0.2c-0.4-0.1-1.4-0.3-1.5-0.4c0.3,0.2,1,0.3,1,0.4
		c-0.7-0.3-0.6,0-1.4-0.3c-0.5-0.1-0.6,0.2-0.4,0.3c0.5,0.2,0.3,0,0.9,0.1c0.1,0.4,1.6,0.8,1.3,1l0.2,0c0.3,0.2,0.2,0.2,0.7,0.4
		c-0.7-0.2-1.9-0.3-1.8,0c0.3,0.1,0.7,0,1.2,0.2l0.1,0.2c-0.1,0-0.2-0.1-0.3-0.1c0.2,0.2-1,0-0.2,0.3l-1.1-0.1l0.5,0.1
		c0.3,0.1,0.4,0.3,0.5,0.4c0.3,0.3,0,0.3-0.4,0.2c0.3,0.1,1,0.2,1,0.3c-1.1-0.3-0.5,0.2-1.1,0c0,0.1-0.4,0.1,0.1,0.2l-0.7-0.2
		c1,0.3,0.9,0.5,1,0.7c-1.3-0.4,0.1,0.2-1.2-0.1c0.9,0.3,0.3,0.4,1,0.6c0,0.1-0.8-0.1-1.1-0.2l0.3,0.2c-0.4-0.1-0.6,0.1-0.9,0.2
		l0.8,0.4l-0.4-0.1c0.2,0.1,0.3,0.2,0.6,0.2l-0.1,0c0.9,0.3,0.2,0.2,0.5,0.4c-0.1,0-0.4-0.1-0.5-0.1c0,0.1-0.5-0.1-0.8-0.2
		c0.2,0,1.5,0.7,1.9,0.7c0.4,0.1,0.6,0.3,0.4,0.3l-0.8-0.2l0.8,0.3c0.1,0.1-0.4,0-0.5,0.1c0-0.1-1.4-0.7-1.5-0.4
		c-0.1-0.1-0.5-0.3-0.6-0.4c0,0-0.1,0-0.4-0.1c0.2,0.2,0.4,0.3,0.5,0.5c-0.7-0.2-0.9-0.1-1.2-0.1l0.5,0.1c0.1,0,0.2-0.1,0.2,0
		c0.1,0,0.2,0,0.5,0c0,0,0.8,0.4,0.4,0.3c1.1,0.2,0.7,0.5,1.4,0.6c0.2,0.1,0.2,0.2-0.2,0.1c-0.5-0.3-0.8-0.2-1.3-0.3
		c0.2,0.1,0.5,0.1,0.8,0.2c0,0.1-0.4,0-0.7,0l-0.1-0.1l-0.4,0c0.3,0.1,0.6,0.1,0.8,0.2c-0.2,0,0,0.2-0.3,0.1
		c-0.5-0.2-1.1-0.4-1.2-0.5c0,0.1,0,0.4,0.7,0.5l-0.1,0.1c0.3,0,0.9,0,0.9,0.3l-0.1,0l0.5,0.3l-0.4-0.1c0.2,0.1,0.3,0.1,0.3,0.2
		c-0.2-0.1-0.3,0-0.6-0.1c0,0.2,0.3,0.3,0.5,0.4c0,0.1-0.1,0.1-0.5-0.1c-0.1,0.1-0.1,0.3-0.5,0.3c0.3,0.3,0.2,0,0.6,0.3
		c-1.2-0.3-0.6,0.3-0.6,0.6c1.1,0.3,0.1,0.1,1,0.5c-0.3-0.2-0.9-0.1-1.1-0.4l0.1,0.2c-0.6-0.1-0.4-0.4-1.2-0.5
		c0,0.2,1.1,0.7,0.6,0.7c-0.7-0.3,0.2,0.2-0.6-0.1c-0.3-0.1-0.2-0.2-0.2-0.2l-0.2,0c-0.3,0.2,0.8,0.4,1.3,0.8c0,0.2-0.6-0.1-1-0.2
		c-0.2,0-0.1,0.1,0.1,0.2c-0.4-0.3,0.5,0,1,0.2c-0.9-0.2-0.2,0.3,0.1,0.4c1,0.1,0.1-0.2,1.1-0.1c-0.3-0.1-1-0.4-0.6-0.5
		c0.3,0.2,0.4,0.2,0.5,0.2c-0.4-0.1-0.1-0.2-0.3-0.3c0.4,0.1,1,0.5,1.2,0.4l-1-0.4c0.2,0,0.7,0.3,0.5,0.1c0.5,0.3,0.8,0.3,0.9,0.5
		c0.9,0.1-0.4-0.5-0.7-0.8c0.1,0,0.2,0.1,0.3,0.1c-0.3-0.1-0.2-0.2-0.3-0.3c0.3,0,0.4,0.3,0.7,0.3l0-0.2c0,0,0.1,0,0.1,0
		c-0.1-0.1-0.2-0.2,0.1-0.1c0.3,0.2,0.6,0.3,0.9,0.4l-0.6-0.4c0.3,0.1,0.6,0,0.8,0.3l0-0.3l0.7,0.2c-0.1-0.1-0.2-0.2-0.3-0.1
		c0.2,0-1.1-0.9,0.3-0.3c-0.5-0.4-0.2-0.4-0.5-0.8c0.6,0.4,0.9,0,1.1,0.4c0.3,0-0.4-0.3-0.5-0.5c0.3,0,1,0.3,1.2,0.5l-0.3-0.2l0.1,0
		l-0.4-0.2c0.4,0,0.7,0.2,0.8,0.1l-0.6-0.2l0.4,0c-0.3-0.1-0.4-0.2-0.4-0.3l0.1,0l-0.1-0.1c0.3,0.2,0.2-0.1,0.6,0.1
		c0.1-0.1,0.1-0.1,0-0.3l-0.4-0.1c-0.3-0.3,0.6,0.2,0.7,0l-0.5-0.1c0.9,0-0.3-0.6,0.3-0.6c0.1,0.1,0.7,0.3,0.5,0.2
		c-0.1-0.2,0.1-0.4-0.4-0.8c0.7,0.2,0.9,0.2,1.3,0.1c0-0.1-0.1-0.2-0.5-0.3c0.3,0,0-0.4,0.5-0.2c-0.4-0.2,0.1-0.1-0.2-0.3l0.2,0
		l-0.5-0.1c1.2,0.1-0.5-0.5,0.5-0.5l0.1,0.1l-0.2-0.1c0.2,0,0.3,0.1,0.6,0.2l0.2-0.4l-0.4,0c0-0.1-0.5-0.3-0.2-0.3
		c0.7,0.4,0.1-0.1,0.6,0l0.2,0.1c0-0.1,0-0.1-0.5-0.3c-0.1-0.2,1,0.2,0.5-0.1l-0.1,0.1c-0.3-0.1-0.7-0.2-0.6-0.3
		c0.1,0,0.3,0,0.4,0.1c-0.2-0.2,0.2-0.3,0-0.4c0.2,0,0.5,0.1,0.6,0.2c-0.4-0.4,0.1-0.1-0.2-0.5l0.3,0.1l-0.3-0.2l0.6,0l-0.4-0.1
		c0-0.1-0.2-0.2,0-0.3l0.4,0.2c-0.2-0.3,0.8-0.1,0.3-0.5c0.1,0,0.2,0.1,0.3,0.1c-0.6-0.4,0.8,0,0.1-0.4c0.1,0.1,0.3,0.1,0.4,0.1
		l-0.2-0.2l0.6,0.2l-0.8-0.3l0.6,0.1l-0.3-0.1c1.1,0.2,0.3-0.2,1.2-0.1l-0.7-0.2c-1.4-0.8,1.1-0.6,0.5-1.3l0.6,0.1l-0.6-0.4
		c0.5,0,0.5,0.2,0.8,0.2c-0.3-0.3-0.8-0.3-0.9-0.6c0.4,0,0.4,0.1,0.6,0.2c-0.2-0.3-0.5-0.7-0.1-0.8c-0.1,0-0.2-0.1-0.2-0.1
		c-0.2-0.2,0.1-0.3,0.1-0.5c0.3,0.1,0.3,0.1,0.3,0.2c0,0,0.2-0.1,0-0.2l0.5,0.2c0.1-0.1-0.3-0.4,0.3-0.3c-0.2,0-0.6-0.1-0.6-0.2
		c0.9,0.1-0.3-0.4,0.2-0.4c0.2,0.1,0.2,0.2,0.2,0.2c0.2,0-0.1-0.2-0.4-0.3l0.3,0.1l-0.4-0.5c0.9,0.1,0-0.4,0.6-0.2
		c0.1-0.1-0.4,0-0.5-0.2c0.4,0-0.1-0.2,0.4-0.1l0.1,0l0-0.1l0.5,0.2c-0.1-0.1-0.6-0.3-1-0.4c0.3,0,0.1-0.2,0.6-0.2l0.1,0.1
		c-0.2-0.3,1.6-0.1,0.7-0.6c0.1,0,0.2,0,0.2,0.1l0.1-0.2l0.4,0.1l-0.6-0.4l0.3,0.1c0.2-0.2,0.1-0.5,0-0.8l0.1,0.1
		c-0.4-0.4,0.3-0.2,0.1-0.5c0.1,0,0.1,0,0.1,0l0-0.2l0.3,0.1c-0.6-0.3,0.9-0.2,0.3-0.2c-0.3-0.1-0.6-0.3-0.9-0.4c0-0.2,0.4,0,0.6,0
		c0.1-0.1-0.4-0.3-0.1-0.4l0.3,0.1c0-0.1-0.2-0.2-0.2-0.3l0.1,0.1c-0.6-0.3,0.9-0.1-0.3-0.5c0.2,0,0.1-0.2,0.7-0.1
		c-0.3-0.3-0.4-0.6-0.6-0.9c0.9,0.1,0-0.1,0.5-0.1l-0.5-0.1c0-0.4,1.3-0.5,1.2-1l0.5,0.1L99,176c0.3-0.4,0.6-0.9,0.7-1.2
		c-0.2-0.2-0.8-0.4-0.6-0.6l0.1,0c-0.2-0.4-0.4-0.7,0-1c0.2,0.1,0.4,0.1,0.5,0.1c-0.5-0.2,0-0.2,0-0.3l-0.4,0
		c-0.5-0.2,0-0.2,0.4-0.2l-0.5-0.2c0.1,0,0.1,0,0.2,0l-0.3-0.1l0.7,0c-0.1-0.1-0.3-0.3-0.9-0.5c0.2,0,0.4-0.1,0.5,0l0.3-0.5l-0.3,0
		c-0.5-0.1-0.8-0.3-0.5-0.3c0.4,0.2,0.7,0.1,1.1,0.2c-0.3-0.1-0.5,0-0.7-0.1c-0.3-0.2-0.5-0.4-0.2-0.4l0.2,0.1
		c-0.2-0.2,0.7-0.1,0.7-0.2c-0.4-0.2,0-0.2-0.9-0.3c-0.1-0.2,0.6,0,0.7,0c-0.4-0.1-0.1-0.3,0.4-0.3c-1.3-0.3,0.5-0.4-0.5-0.6l0.6,0
		c-0.3-0.1-0.9-0.2-1-0.3c0.3,0,0.8,0.1,1.1,0.1l-1-0.3c1.2-0.4,0.6-1.3,1.7-1.8c-0.2-0.3-0.6-0.8-0.4-1.1l0.1,0.1l0.3-0.3l-0.5,0.2
		c-0.1-0.1-0.3-0.2-0.3-0.3c0.5-0.3,1.1-0.7,0.7-1.2c-1.2-0.5,1.1,0,0.3-0.4c0.1,0,0.3,0.1,0.4,0.1c-0.4-0.4-0.5-0.6-1.2-1
		c1.2,0.2,0-0.2,0.6-0.1l-0.5-0.1c0.3,0,0.4-0.2,0.8-0.1l-0.6-0.2l0.5,0.1c0.1-0.2-0.3-0.6,0.8-0.5c-0.7-0.6-0.4-1.2-0.1-1.7
		c-0.4-0.1-0.4-0.3-0.4-0.4l0.6,0c-0.2-0.2-0.9-0.4-0.5-0.5c0.1,0,0.1,0,0.2,0c-0.1-0.1,0.2-0.2-0.3-0.4c0.1-0.1,0.4-0.2,0.9-0.1
		c-1-0.2,0.2-0.3,0.2-0.3s0.9-1.7,1.1-3.7c0.2-2-0.2-4.3-2.7-5.6c-0.5-0.1-0.8-0.4-1.4-0.4c-0.2-0.2,0.7-0.1,0.2-0.2
		c-0.4,0.1-1.3-0.3-1.9-0.2l-0.1-0.1c-0.3-0.1,0.4,0.2-0.3,0.1l0.9,0.2c-0.2,0.1-0.4,0.1-0.7,0.1c0.3,0.1,1.6,0.4,1,0.5l0-0.1
		c0,0.2-0.6,0-0.8,0l0,0l-0.5,0.1c0.3-0.1-0.4-0.3-0.4-0.2c-0.3,0.1,0.2,0,0.3,0.1c0,0.1-0.5,0-0.7-0.1l0,0.2
		c-0.4-0.1,0-0.1-0.4-0.1l0.4,0.3c-1.1-0.1,1.2,0.3,0.1,0.2c-0.2-0.2,0-0.1,0-0.1l0,0.4c0,0-1-0.1-1-0.1c-0.3,0-0.1,0.2-0.1,0.2
		c-0.3,0-0.2,0.3-0.9,0.1c-0.5,0.2,0.8,0.2,0.4,0.4c-0.4,0-0.1-0.2-0.6-0.2l0.1,0.3c-0.2-0.1-0.7-0.2-0.6-0.2
		c-0.7,0.5-3,0.5-2.5,1.2c-0.5,0-0.3-0.1-0.7-0.2c0.6,0.5-1.2,0.4-1.2,0.8l0.4,0.1c-1.4,0.3-0.7,1-1.3,1.5l0.3,0
		c0.4,0.1,0.4,0.3,0.6,0.4c-0.2,0-0.9-0.2-0.8,0c0.2,0,0.3-0.1,0.5,0c-1.2,0.3-1.1,1.3-1.7,2c0.2,1.1-0.8,2.1-0.7,3.2
		c0-0.2,1,0.1,0.8,0.2c-1.8,0,0.2,0.6-1.1,0.7c0.5,0.7-1.2,1,0.1,1.7l-0.5-0.1c-0.2,0,0.1,0.1,0.1,0.2l-0.1,0
		c-0.2,0.2,0.3,0.5,0,0.6l0.6,0.1c0,0.1-0.5,0-0.1,0.2l-0.3-0.1l0.5,0.2c-1-0.2-0.1,0.3-0.6,0.4c0.2,0.2,0.5,0.6,0.3,0.8
		c-0.5,0-0.6,0.3-0.9,0.4c0.1,0.4,0.2,0.9-0.1,1.4l0.7,0.1l0,0.1c-0.1,0-0.2,0-0.3-0.1c-0.8,0,0.2,0.3-0.3,0.3
		c0.6,0,0.1-0.1,0.1-0.1c0.3,0,0.9,0.2,0.6,0.2l-0.1,0l0.3,0.2c-0.5-0.1-0.8,0-1.3-0.1c0.1,0.4,0.9,0.8,0.6,1.2
		c-0.6-0.1,0.1,0.3-0.9,0.1c0.3,0.3,0.8,0.1,1.5,0.3c0,0.1,0.2,0.2-0.1,0.1c-0.2-0.1-0.6-0.1-0.7-0.1l0,0.2c-0.1,0-0.2-0.1-0.3-0.1
		c0.5,0.4-0.7,0.5-0.2,0.9c0.3,0.1,0.1-0.1,0.5,0c0.7,0.4-0.7,0.2-0.2,0.5l-0.5-0.1c0.3,0.2,0.7,0.3,0.3,0.3
		c-0.6-0.1-0.5-0.2-0.7-0.3c0,0.1,0.1,0.4,0.6,0.4c0.2,0.2-0.4,0.1-0.5,0.1c0.1,0,0.4,0,0.7,0.1c-0.4,0.1-0.4,0.4-0.5,0.6
		c-0.1,0-0.4-0.1-0.4-0.1C85.2,171.2,83.9,171,84,171.2"/>
	<path class="st0" d="M84.7,182.5l0.1-0.1c-0.1,0-0.3-0.1-0.4-0.1L84.7,182.5z"/>
	<path class="st0" d="M86,178.8c0,0-0.1,0-0.1-0.1C85.8,178.7,85.9,178.8,86,178.8"/>
	<path class="st0" d="M85.2,177.6c0.1,0.1,0.3,0.1,0.4,0.1C85.5,177.7,85.3,177.6,85.2,177.6"/>
	<path class="st0" d="M85.7,185c-0.1,0-0.1-0.1-0.2-0.1C85.6,185,85.7,185,85.7,185"/>
	<path class="st0" d="M83.7,190.8C83.7,190.8,83.7,190.8,83.7,190.8C83.7,190.8,83.7,190.8,83.7,190.8"/>
	<path class="st0" d="M84.7,190.8C84.7,190.7,84.7,190.7,84.7,190.8C84.6,190.7,84.6,190.7,84.7,190.8"/>
	<path class="st0" d="M85.9,183.5c0,0-0.1-0.1-0.2-0.1C85.7,183.5,85.8,183.5,85.9,183.5"/>
	<path class="st0" d="M84.5,190.6L84.5,190.6C84.5,190.5,84.5,190.5,84.5,190.6L84.5,190.6z"/>
	<path class="st0" d="M83.6,190.9c0,0,0-0.1,0.1-0.1C83.5,190.8,83.5,190.8,83.6,190.9"/>
	<path class="st0" d="M85.9,187.4C85.8,187.4,85.8,187.4,85.9,187.4C85.6,187.3,85.7,187.3,85.9,187.4"/>
	<polygon class="st0" points="83.7,189.9 83.7,189.9 83.5,189.8 	"/>
	<path class="st0" d="M83.2,191.1C83.2,191.1,83.2,191.1,83.2,191.1c-0.1-0.1-0.1-0.1-0.2,0C83.1,191.1,83.2,191.1,83.2,191.1"/>
	<path class="st0" d="M84.6,188.4c0.2,0.1,0.3,0.1,0.4,0.2C85.1,188.5,85,188.5,84.6,188.4"/>
	<path class="st0" d="M210.5,119.1c0-0.1,0.1-0.1,0.1-0.2C210.6,119,210.6,119.1,210.5,119.1"/>
	<path class="st0" d="M207.9,115.8L207.9,115.8C208,115.7,207.9,115.8,207.9,115.8"/>
	<path class="st0" d="M212.1,121C212.1,121,212.1,121,212.1,121c0,0.1,0,0.1,0.1,0.2L212.1,121z"/>
	<path class="st0" d="M201.1,110.6L201.1,110.6C201.1,110.6,201.1,110.6,201.1,110.6"/>
	<path class="st0" d="M205.1,113.8c-0.1,0.1-0.1,0.1-0.1,0.1C205,113.9,205,113.9,205.1,113.8"/>
	<path class="st0" d="M210,126.4l0.2-0.4C210.1,126.2,210,126.4,210,126.4"/>
	<path class="st0" d="M212.7,126.3C212.7,126.3,212.7,126.3,212.7,126.3C212.7,126.3,212.7,126.3,212.7,126.3"/>
	<path class="st0" d="M212.8,124.6c0,0-0.1,0.1-0.1,0.1C212.7,124.7,212.8,124.7,212.8,124.6"/>
	<path class="st0" d="M212.6,124.7L212.6,124.7C212.7,124.7,212.7,124.7,212.6,124.7"/>
	<path class="st0" d="M174.2,102.6c0,0-0.2,0.2-0.4,0.4L174.2,102.6z"/>
	<path class="st0" d="M194.3,107.9l0.1-0.1C194.3,107.8,194.3,107.9,194.3,107.9"/>
	<path class="st0" d="M172.7,105.6L172.7,105.6C172.6,105.5,172.7,105.6,172.7,105.6"/>
	<path class="st0" d="M208.6,126.7c-0.2,0.3-0.1-0.2-0.3,0.1C208.3,126.8,208.3,127.1,208.6,126.7"/>
	<path class="st0" d="M188.2,120.9L188.2,120.9C188.2,120.9,188.2,120.9,188.2,120.9"/>
	<path class="st0" d="M172.7,105.6l0,0.1C172.7,105.6,172.7,105.6,172.7,105.6C172.7,105.5,172.7,105.6,172.7,105.6"/>
	<path class="st0" d="M187.4,105.3L187.4,105.3C187.4,105.3,187.4,105.3,187.4,105.3L187.4,105.3z"/>
	<path class="st0" d="M187.2,104.6c0,0,0.1-0.1,0.1-0.1C187.3,104.5,187.3,104.5,187.2,104.6"/>
	<path class="st0" d="M173.8,103l-0.2,0.2C173.6,103.2,173.7,103.1,173.8,103"/>
	<path class="st0" d="M183.2,103.8C183.2,103.8,183.2,103.8,183.2,103.8C183.2,103.7,183.2,103.7,183.2,103.8"/>
	<path class="st0" d="M205.3,114.1C205.3,114.1,205.3,114.2,205.3,114.1C205.3,114.1,205.4,114,205.3,114.1"/>
	<polygon class="st0" points="198.7,122.1 198.7,122.1 198.7,122.2 	"/>
	<path class="st0" d="M199,121.8c0-0.1-0.2,0.1-0.3,0.4C198.7,122.2,198.8,122.1,199,121.8"/>
	<path class="st0" d="M198.5,121.8L198.5,121.8C198.5,121.9,198.5,121.8,198.5,121.8"/>
	<path class="st0" d="M200.9,123.7L200.9,123.7C200.9,123.7,200.9,123.7,200.9,123.7L200.9,123.7z"/>
	<path class="st0" d="M200.3,123.5c0-0.1,0-0.1,0-0.2C200.3,123.4,200.3,123.5,200.3,123.5"/>
	<polygon class="st0" points="196.7,122.3 196.7,122.2 196.7,122.2 	"/>
	<path class="st0" d="M190.5,122.9c0.6,0,1.5-0.5,2-0.1c0.4-0.7,0.5-0.7,0.8-0.8l-0.3,1l0.3-0.3c-0.1,0.3-0.2,0.1-0.2,0.5l0.3-0.6
		c-0.1,0.3,0.3,0.4-0.2,1l0.5,0.2c0.1,0.1,0.4-0.8,0.4-0.5c-0.1,0.3-0.1,0.2-0.2,0.5c0.1,0.9,1.2-1.7,1.4-1.1L195,123
		c0.2-0.2,0.3-0.2,0.3-0.3c0.3-1-0.3,0.5-0.2-0.1c0.3-0.8,0.3-0.4,0.5-1c0,0.3,0.2-0.1,0.3-0.1c-0.1,0.6,0.3,0.3,0.1,0.9
		c0.2-0.2,0.5-1,0.7-1c-0.1,0.7-0.3,0.6-0.2,0.9l0.2-0.5c0.1,0.1,0,0.2-0.1,0.5c0.1,0.1,0.4-0.6,0.4-0.3l-0.3,0.4
		c0.2-0.1,0.2,0,0.3,0.1c-0.1,0.3-0.2,0.2-0.2,0.1c-0.2,0.7,0.3-0.2,0.3-0.2c0.1-0.2,0-0.3,0.2-0.8c0,0.1,0.4-0.6,0.2,0l-0.3,0.4
		c0.3-0.3,0.3-0.6,0.4-0.3c0,0-0.1,0.2-0.1,0.2c0.3-0.6,0.3,0.1,0.4,0.2l-0.1,0.1c0.1-0.1,0.3-0.5,0.4-0.5c0-0.3,0.1-0.4,0.3-0.9
		c-0.2,0.8,0.6-0.8,0.6-0.3c-0.1,0.3-0.3,0.6-0.2,0.3c-0.4,0.8-0.7,1.4-0.9,1.8c0.1-0.2,0.3-0.2,0.1,0.1l0.3-0.7
		c0.1,0,0.1,0.1,0.1,0.1c0.2-0.5,0.2-0.8,0.5-1.1c0.2-0.2-0.2,0.8-0.1,0.5c0.3-0.2,0.4-0.8,0.5-0.4c0,0.1-0.1,0.2-0.1,0.1
		c0,0.3,0.3,0,0,0.9c-0.1,0.2-0.2,0.5-0.2,0.4l0.1-0.1c-0.4,0.6,0.2-0.1-0.2,0.7c0.2-0.5,0.3-0.3,0.3-0.2l0.2-0.6
		c0.9-1.5-0.5,1.1-0.1,1c0.3-0.3,0-0.2,0.3-0.5c0.1,0.1-0.1,0.6,0.1,0.5c-0.1,0.2-0.1,0.6-0.3,1.2c0.2-0.2,0.1,0.4,0.5-0.2
		c0.1-0.6-0.4,0.6-0.3-0.3l0.3-0.6c0.1,0.1,0.4-0.1,0.4,0.1c0-0.1,0.1-0.3,0.2-0.4c0.3-0.1,0.6-0.7,0.7-0.5
		c-0.2,0.5-0.3,0.4-0.4,0.4c-0.1,0.5,0.1,0.1,0.2,0.3c-0.2,0.5-0.1-0.1-0.3,0.4l0.3-0.1c0,0,0,0.1,0,0.1c0.4-0.8,0.1,0.1,0.3-0.1
		c0.3,0.1,0.8-0.9,1.2-1.5c-0.1,0.2-0.1,0.4-0.2,0.6c0.1-0.4,0-0.1-0.1,0.1c0.1,0-0.1,0.9-0.3,1.2c0.3-0.2,0.1-0.4,0.3-0.6l0.2,0.1
		c0.2-0.4,0.1-0.5,0.4-0.8c0.1-0.1,0.1,0,0.2,0.1c-0.1,0.2-0.2,0.6-0.3,0.6c0,0.2,0.1,0.2,0.3-0.1c0-0.4,0.4-0.2,0.6-0.9l0,0.4
		c0,0-0.2,0.2-0.2,0.1c-0.3,0.6,0.2-0.1,0.2-0.2c0,0.1,0.1,0.3,0,0.5c0.1-0.1,0.1,0,0,0.3c0.1-0.1,0.2-0.4,0.3-0.6l0.2,0.2
		c-0.2,0.3-0.6,1.3-0.7,1.4c0.2-0.3,0.5-1,0.6-0.9c-0.4,0.6-0.1,0.6-0.6,1.3c-0.2,0.5,0,0.6,0.2,0.5c0.3-0.5,0-0.3,0.3-0.9
		c0.4,0,1.1-1.5,1.2-1.1l0-0.2c0.3-0.2,0.2-0.2,0.5-0.6c-0.4,0.6-0.7,1.8-0.5,1.8c0.2-0.3,0.2-0.7,0.5-1.2l0.2,0
		c0,0.1-0.1,0.2-0.1,0.2c0.2-0.2-0.2,1,0.2,0.2l-0.4,1l0.2-0.4c0.2-0.3,0.4-0.3,0.5-0.4c0.3-0.3,0.2,0,0.1,0.5
		c0.1-0.3,0.4-0.9,0.5-0.9c-0.6,1,0,0.5-0.3,1c0.1,0,0,0.4,0.2,0l-0.4,0.6c0.5-0.9,0.6-0.8,0.9-0.8c-0.7,1.2,0.2,0-0.4,1.1
		c0.5-0.8,0.4-0.2,0.8-0.9c0.1,0-0.3,0.8-0.4,1l0.2-0.3c-0.2,0.4,0,0.6-0.1,0.9l0.5-0.7l-0.2,0.3c0.1-0.2,0.3-0.2,0.4-0.5l0,0.1
		c0.5-0.8,0.2-0.2,0.5-0.4c-0.1,0.1-0.2,0.3-0.3,0.4c0,0-0.2,0.4-0.3,0.7c0.1-0.2,1-1.3,1.1-1.7c0.2-0.3,0.4-0.5,0.4-0.3l-0.4,0.7
		l0.5-0.7c0.1,0-0.1,0.4-0.1,0.5c-0.1,0-1,1.2-0.8,1.3c-0.1,0-0.4,0.4-0.6,0.5c0,0,0,0.1-0.2,0.4c0.3-0.1,0.3-0.4,0.5-0.4
		c-0.4,0.6-0.5,0.8-0.5,1.1l0.2-0.5c0.1-0.1,0.1-0.1,0.1-0.2c0-0.1,0.1-0.2,0.2-0.4c0,0,0.6-0.7,0.4-0.3c0.5-1.1,0.7-0.6,1-1.2
		c0.1-0.2,0.2-0.1,0.1,0.2c-0.4,0.4-0.4,0.8-0.6,1.2c0.2-0.1,0.2-0.5,0.4-0.7c0.1,0-0.1,0.4-0.2,0.6l-0.1,0.1l-0.1,0.3
		c0.2-0.3,0.2-0.6,0.4-0.7c-0.1,0.1,0.1,0,0,0.3c-0.3,0.4-0.6,1-0.8,1c0.1,0,0.3,0.1,0.6-0.6l0.1,0.1c0.1-0.3,0.3-0.8,0.5-0.8
		l-0.1,0.1l0.4-0.4l-0.2,0.3c0.1-0.2,0.2-0.3,0.2-0.2c-0.1,0.2-0.1,0.3-0.3,0.5c0.1,0,0.3-0.3,0.5-0.4c0.1,0,0,0.1-0.2,0.5
		c0,0.1,0.2,0.2,0.1,0.5c0.3-0.2,0.1-0.1,0.4-0.5c-0.6,1.1,0.1,0.7,0.4,0.7c0.6-0.9,0.1-0.1,0.7-0.9c-0.2,0.3-0.3,0.8-0.7,1l0.2,0
		c-0.3,0.5-0.4,0.3-0.8,1c0.1,0,0.9-0.9,0.8-0.5c-0.5,0.6,0.3-0.1-0.3,0.5c-0.2,0.2-0.2,0.1-0.3,0.1l-0.1,0.1
		c0.1,0.4,0.6-0.7,1.1-1.1c0.2,0-0.2,0.6-0.5,0.9c-0.1,0.1,0.1,0.1,0.2,0c-0.4,0.3,0.1-0.5,0.5-0.9c-0.5,0.8,0.2,0.2,0.4,0
		c0.3-0.9-0.1-0.1,0.3-1.1c-0.2,0.2-0.7,0.9-0.6,0.5c0.3-0.3,0.3-0.4,0.3-0.5c-0.2,0.4-0.2,0.1-0.4,0.2c0.2-0.3,0.7-0.8,0.7-1.1
		l-0.7,0.9c0-0.2,0.5-0.6,0.2-0.5c0.4-0.4,0.5-0.7,0.7-0.8c0.4-0.9-0.6,0.2-0.9,0.5c0-0.1,0.1-0.2,0.2-0.2c-0.2,0.2-0.2,0.2-0.3,0.2
		c0-0.3,0.4-0.4,0.5-0.6l-0.2-0.1c0,0,0,0,0-0.1c-0.1,0.1-0.2,0.2-0.1-0.1c0.2-0.3,0.5-0.5,0.7-0.8l-0.6,0.8
		c0.2-0.3,0.2-0.5,0.5-0.5l-0.3,0l0.4-0.9c-0.1,0.1-0.2,0.1-0.2,0.2c0-0.2-1.1,0.8-0.2-0.4c-0.5,0.4-0.5,0.1-0.9,0.3
		c0.5-0.4,0.3-0.9,0.6-1c0.1-0.3-0.4,0.3-0.5,0.3c0.1-0.3,0.5-0.9,0.7-1.1l-0.3,0.2l0.1-0.1l-0.3,0.3c0.1-0.4,0.4-0.6,0.3-0.8
		l-0.4,0.5l0.1-0.4c-0.1,0.3-0.3,0.3-0.4,0.3l0.1-0.1l-0.2,0c0.3-0.3,0-0.2,0.3-0.5c-0.1-0.1-0.1-0.1-0.3-0.1l-0.2,0.4
		c-0.4,0.2,0.3-0.6,0.2-0.7l-0.3,0.4c0.2-0.9-0.6,0.2-0.5-0.4c0.1,0,0.4-0.6,0.4-0.4c-0.2,0.1-0.4-0.2-0.8,0.2
		c0.3-0.7,0.4-0.9,0.4-1.3c-0.1,0-0.2,0-0.4,0.4c0-0.3-0.4,0-0.1-0.5c-0.2,0.4-0.1-0.1-0.3,0.2l0.1-0.2l-0.2,0.5
		c0.4-1.1-0.6,0.4-0.3-0.6l0.1-0.1l-0.2,0.1c0.1-0.2,0.2-0.3,0.3-0.6l-0.3-0.3l-0.1,0.4c-0.1,0-0.4,0.4-0.3,0.1
		c0.5-0.6-0.1-0.1,0.1-0.6l0.2-0.1c-0.1,0-0.1,0-0.4,0.4c-0.2,0.1,0.4-0.9,0-0.5l0.1,0.1c-0.1,0.3-0.4,0.6-0.4,0.6
		c0-0.1,0.1-0.3,0.2-0.3c-0.2,0.1-0.2-0.2-0.4-0.1c0-0.2,0.2-0.5,0.3-0.6c-0.4,0.3-0.1-0.1-0.5,0.1l0.1-0.3l-0.2,0.3l0.2-0.6
		l-0.1,0.4c-0.1,0-0.2,0.2-0.3,0l0.2-0.4c-0.3,0.1,0.1-0.8-0.4-0.4c0-0.1,0.1-0.2,0.2-0.2c-0.5,0.5,0.2-0.8-0.4-0.1
		c0.1-0.1,0.1-0.3,0.2-0.4l-0.2,0.2l0.3-0.5l-0.5,0.7l0.2-0.6l-0.2,0.2c0.4-1.1-0.1-0.4,0.1-1.2l-0.3,0.7c-1,1.2-0.4-1.2-1.1-0.7
		l0.3-0.5l-0.5,0.5c0.1-0.5,0.3-0.4,0.4-0.7c-0.3,0.2-0.4,0.8-0.7,0.8c0.1-0.4,0.2-0.4,0.4-0.5c-0.3,0.2-0.7,0.3-0.7,0
		c0,0.1-0.1,0.2-0.1,0.2c-0.2,0.2-0.3-0.1-0.5-0.2c0.1-0.2,0.2-0.3,0.2-0.3c0-0.1,0-0.3-0.2,0l0.3-0.4c-0.1-0.1-0.5,0.2-0.3-0.4
		c-0.1,0.2-0.3,0.6-0.3,0.5c0.3-0.8-0.4,0.2-0.4-0.3c0.1-0.2,0.2-0.2,0.2-0.2c0-0.3-0.2,0.1-0.4,0.3l0.2-0.3l-0.6,0.3
		c0.3-0.8-0.4,0-0.1-0.6c-0.1-0.1,0,0.4-0.2,0.4c0.1-0.4-0.2,0.1,0-0.4l0-0.1l-0.1,0l0.3-0.5c-0.1,0.1-0.4,0.6-0.6,1
		c0-0.3-0.2-0.2,0-0.7l0.1-0.1c-0.3,0.1,0.2-1.6-0.4-0.8c0-0.1,0.1-0.2,0.1-0.2l-0.1-0.1l0.2-0.4l-0.5,0.5l0.1-0.3
		c-0.1-0.2-0.5-0.2-0.7-0.2l0.1-0.1c-0.4,0.3-0.1-0.4-0.4-0.1c0-0.1,0.1-0.1,0.1-0.1l-0.2-0.1l0.1-0.2c-0.3,0.5-0.1-0.9-0.2-0.4
		c-0.2,0.2-0.4,0.5-0.6,0.8c-0.2,0,0.1-0.4,0.1-0.6c-0.1-0.1-0.3,0.4-0.4,0.1l0.1-0.3c-0.1,0-0.2,0.2-0.4,0.2l0.1-0.1
		c-0.4,0.5,0.1-0.9-0.5,0.2c0-0.3-0.2-0.1,0-0.7c-0.4,0.3-0.6,0.4-0.9,0.5c0.3-0.9-0.1,0,0-0.5l-0.2,0.5c-0.3-0.1-0.3-1.4-0.7-1.3
		l0.2-0.5l-0.3,0.5c-0.3-0.4-0.7-0.8-1.1-0.9c-0.2,0.2-0.6,0.7-0.6,0.5l0-0.1c-0.4,0.2-0.7,0.3-0.9-0.1c0.1-0.2,0.1-0.4,0.2-0.5
		c-0.3,0.5-0.2,0-0.2-0.1l-0.1,0.4c-0.2,0.4-0.2-0.1-0.1-0.4l-0.3,0.5c0-0.1,0-0.1,0-0.2l-0.1,0.2l0.1-0.7c-0.1,0.1-0.3,0.2-0.6,0.8
		c0.1-0.2,0-0.4,0.1-0.5l-0.4-0.4l0,0.3c-0.2,0.5-0.4,0.7-0.4,0.5c0.2-0.4,0.2-0.7,0.3-1.1c-0.2,0.2-0.1,0.4-0.2,0.7
		c-0.2,0.3-0.4,0.4-0.4,0.2l0.1-0.2c-0.2,0.1,0.1-0.7-0.1-0.7c-0.2,0.4-0.2,0-0.4,0.8c-0.2,0.1,0.1-0.6,0.1-0.7
		c-0.2,0.4-0.3,0-0.2-0.4c-0.5,1.2-0.2-0.6-0.6,0.4l0.1-0.6c-0.1,0.3-0.3,0.9-0.5,1c0-0.3,0.2-0.8,0.3-1.1l-0.4,1
		c-0.2-1.3-1.1-0.8-1.3-1.9c-0.3,0.1-0.8,0.5-1,0.2l0.1-0.1l-0.2-0.4l0.1,0.5c-0.1,0.1-0.2,0.3-0.3,0.2c-0.2-0.5-0.4-1.2-1-0.8
		c-0.7,1.1,0.2-1.1-0.3-0.3c0.1-0.1,0.1-0.3,0.2-0.4c-0.4,0.3-0.6,0.5-1.1,1.1c0.4-1.2-0.2,0,0.1-0.6l-0.2,0.5
		c0-0.3-0.1-0.5,0.1-0.8l-0.3,0.6l0.2-0.5c-0.1-0.1-0.6,0.2-0.3-0.8c-0.6,0.6-1.1,0.2-1.5-0.2c-0.2,0.4-0.4,0.4-0.5,0.4l0.1-0.6
		c-0.2,0.1-0.5,0.8-0.5,0.4c0-0.1,0-0.1,0.1-0.1c-0.2,0.1-0.1-0.3-0.4,0.2c-0.1-0.1-0.1-0.4,0.1-0.9c-0.4,1-0.2-0.2-0.2-0.2
		s-0.3-0.3-0.9-0.6c-0.5-0.4-1.3-0.8-2.1-1.1c-1.6-0.6-3.6-0.7-5.6,1.5c-0.3,0.4-0.5,0.7-0.7,1.2c-0.2,0.1,0.1-0.7-0.1-0.3
		c0,0.4-0.6,1.2-0.7,1.8l-0.1,0.1c-0.2,0.3,0.3-0.3,0,0.3l0.4-0.8c0,0.2,0,0.4-0.1,0.7c0.2-0.3,0.8-1.4,0.7-0.9l-0.1,0
		c0.1,0-0.2,0.6-0.2,0.7l0,0l-0.1,0.5c0-0.3-0.4,0.3-0.3,0.3c0.1,0.3,0.1-0.2,0.2-0.3c0.1,0-0.1,0.4-0.3,0.7l0.2,0
		c-0.2,0.4-0.1-0.1-0.2,0.4l0.4-0.3c-0.4,1,0.4-0.4,0.1,0.6c-0.2,0.2-0.1,0.3-0.3,0.7l0.3,0.1c0,0.2-0.2,0.3-0.2,0.2
		c-0.1,0.3,0.2-0.2,0.2-0.2c-0.1,0.3,0.2,0.1-0.1,0.8c0,0.5,0.5-0.8,0.5-0.3c-0.2,0.4-0.2,0-0.3,0.5l0.3-0.1
		c-0.1,0.2-0.3,0.6-0.4,0.5c0.3,0.8-0.3,3.1,0.4,2.8c-0.1,0.5-0.2,0.3-0.4,0.6c0.7-0.5,0.1,1.3,0.4,1.4l0.2-0.4
		c-0.1,1.4,0.8,1,1.1,1.7l0.1-0.3c0.2-0.4,0.4-0.4,0.5-0.5c-0.1,0.2-0.4,0.8-0.2,0.7c0-0.2,0-0.3,0.1-0.5c0,1.2,1.1,1.3,1.6,2.1
		c1.1,0.1,1.9,1.3,2.9,1.4c-0.2,0,0.3-1,0.3-0.7c-0.3,1.8,0.6-0.1,0.5,1.2c0.7-0.4,0.7,1.3,1.7,0.2l-0.2,0.5c0,0.2,0.1-0.1,0.2-0.1
		l0,0.1c0.1,0.3,0.5-0.2,0.6,0.1l0.2-0.5c0.1,0-0.1,0.4,0.1,0.2l-0.1,0.3l0.3-0.5c-0.3,1,0.3,0.2,0.2,0.7c0.2-0.1,0.6-0.4,0.8-0.2
		c-0.1,0.5,0.1,0.6,0.2,0.9c0.4,0,0.9-1.4,1.2-1.1l0.2-2l0.1,0c-0.1,0,0,1.6-0.1,1.7c-0.2,0.7,0.3,0.6,0.3,1c0.1-0.6,0,0.2-0.1,0.2
		c0-0.3,0.3-0.7,0.3-0.4l0,0.2l0.2-0.3c-0.2,0.5-0.2,0.8-0.3,1.3c0.4,0,0.9-0.7,1.2-0.4c-0.2,0.5,0.3,0-0.1,0.9
		c0.3-0.3,0.2-0.8,0.6-1.4c0.1,0,0.2-0.2,0.1,0.2c-0.1,0.2-0.1,0.6-0.2,0.7l0.2,0c0,0.1-0.1,0.2-0.1,0.3c0.5-0.4,0.3,0.8,0.8,0.3
		c0.1-0.3-0.1-0.1,0.1-0.5c0.5-0.6,0,0.7,0.5,0.3l-0.2,0.5c0.2-0.3,0.4-0.7,0.4-0.3c-0.2,0.6-0.3,0.4-0.4,0.7c0.1,0.1,0.4,0,0.5-0.5
		c0.2-0.1,0,0.4,0.1,0.5c0-0.1,0-0.4,0.2-0.6c0,0.4,0.3,0.4,0.4,0.5c0,0.1-0.1,0.4-0.1,0.4C190.7,121.8,190.3,123,190.5,122.9"/>
	<path class="st0" d="M200.9,123.8l0-0.1c-0.1,0.1-0.1,0.3-0.2,0.4L200.9,123.8z"/>
	<path class="st0" d="M197.8,122c0,0,0,0.1-0.1,0.1C197.7,122.2,197.7,122.1,197.8,122"/>
	<path class="st0" d="M196.6,122.7c0.1-0.1,0.1-0.3,0.1-0.4C196.7,122.4,196.6,122.5,196.6,122.7"/>
	<path class="st0" d="M203.4,123.3c0,0-0.1,0.1-0.1,0.2C203.3,123.4,203.4,123.3,203.4,123.3"/>
	<path class="st0" d="M208.1,126.3C208.1,126.3,208.1,126.3,208.1,126.3C208.1,126.3,208.1,126.3,208.1,126.3"/>
	<path class="st0" d="M208.3,125.4C208.3,125.4,208.2,125.4,208.3,125.4C208.2,125.4,208.2,125.4,208.3,125.4"/>
	<path class="st0" d="M202.1,122.9c0,0-0.1,0-0.1,0.1C202,123,202,122.9,202.1,122.9"/>
	<path class="st0" d="M208.1,125.5L208.1,125.5C208,125.4,208,125.4,208.1,125.5L208.1,125.5z"/>
	<path class="st0" d="M208.1,126.4c0,0,0-0.1,0-0.1C208,126.5,208,126.5,208.1,126.4"/>
	<path class="st0" d="M205.6,123.6C205.6,123.6,205.6,123.6,205.6,123.6C205.4,123.8,205.5,123.7,205.6,123.6"/>
	<polygon class="st0" points="207.3,126.2 207.3,126.1 207.2,126.3 	"/>
	<path class="st0" d="M208.3,126.8C208.2,126.8,208.2,126.8,208.3,126.8c-0.1,0.1-0.1,0.1-0.1,0.1
		C208.2,126.9,208.2,126.9,208.3,126.8"/>
	<path class="st0" d="M206.2,124.9c0.1-0.2,0.2-0.3,0.3-0.4C206.4,124.5,206.3,124.6,206.2,124.9"/>
	<path class="st0" d="M162.6,173.4c0.1,0,0.1-0.1,0.2-0.1C162.7,173.3,162.7,173.3,162.6,173.4"/>
	<path class="st0" d="M162.4,169.6l0.1,0C162.5,169.6,162.4,169.6,162.4,169.6"/>
	<path class="st0" d="M163,175.5C163,175.5,162.9,175.5,163,175.5c-0.1,0.1,0,0.1,0,0.2L163,175.5z"/>
	<path class="st0" d="M160.6,162.4L160.6,162.4C160.6,162.5,160.6,162.4,160.6,162.4"/>
	<path class="st0" d="M161.5,166.8c-0.1,0-0.1,0-0.2,0C161.3,166.8,161.3,166.8,161.5,166.8"/>
	<path class="st0" d="M158.6,179.3l0.3-0.2C158.8,179.1,158.6,179.2,158.6,179.3"/>
	<path class="st0" d="M161,180.3C161,180.3,161,180.3,161,180.3C161,180.3,161,180.3,161,180.3"/>
	<path class="st0" d="M161.9,178.8c0,0-0.1,0-0.2,0C161.7,178.9,161.8,178.9,161.9,178.8"/>
	<path class="st0" d="M161.6,178.9L161.6,178.9C161.7,178.8,161.7,178.8,161.6,178.9"/>
	<path class="st0" d="M147.6,140.3c0-0.1-0.3,0-0.5,0.1L147.6,140.3z"/>
	<path class="st0" d="M157.7,156.7l0.1-0.1C157.8,156.6,157.8,156.7,157.7,156.7"/>
	<path class="st0" d="M144.5,141.5L144.5,141.5C144.5,141.5,144.5,141.5,144.5,141.5"/>
	<path class="st0" d="M157.2,178.8c-0.4,0.1,0-0.2-0.3,0C156.9,178.9,156.7,179.1,157.2,178.8"/>
	<path class="st0" d="M144.6,162.1L144.6,162.1C144.6,162.1,144.6,162.1,144.6,162.1"/>
	<path class="st0" d="M144.5,141.5L144.5,141.5c0,0,0,0,0.1,0C144.6,141.5,144.5,141.5,144.5,141.5"/>
	<path class="st0" d="M154.9,150.7L154.9,150.7C154.9,150.7,154.9,150.7,154.9,150.7L154.9,150.7z"/>
	<path class="st0" d="M155.3,150.1c0,0,0.1,0,0.1,0C155.4,150.1,155.4,150.1,155.3,150.1"/>
	<path class="st0" d="M147.1,140.3l-0.3,0C146.8,140.4,146.9,140.4,147.1,140.3"/>
	<path class="st0" d="M153.2,147C153.2,147,153.2,147,153.2,147C153.2,147,153.2,147,153.2,147"/>
	<path class="st0" d="M161.4,167.1C161.4,167.1,161.4,167.1,161.4,167.1C161.5,167.1,161.5,167.1,161.4,167.1"/>
	<polygon class="st0" points="151.5,169.7 151.5,169.7 151.5,169.7 	"/>
	<path class="st0" d="M152,169.6c0.1-0.1-0.2,0-0.5,0.1C151.5,169.7,151.6,169.7,152,169.6"/>
	<path class="st0" d="M151.5,169.3L151.5,169.3C151.5,169.3,151.5,169.3,151.5,169.3"/>
	<path class="st0" d="M152.3,172.2L152.3,172.2C152.3,172.2,152.3,172.2,152.3,172.2L152.3,172.2z"/>
	<path class="st0" d="M151.9,171.7c0.1,0,0.1-0.1,0.1-0.1C152,171.7,151.9,171.7,151.9,171.7"/>
	<polygon class="st0" points="149.9,168.5 149.9,168.5 149.9,168.5 	"/>
	<path class="st0" d="M144.8,165.1c0.4,0.4,1.5,0.6,1.5,1.2c0.7-0.3,0.8-0.1,1.1-0.1l-0.9,0.5l0.4,0c-0.2,0.2-0.2,0-0.5,0.3l0.6-0.3
		c-0.3,0.2,0,0.4-0.8,0.6l0.3,0.5c0,0.1,0.8-0.3,0.6-0.1c-0.2,0.2-0.2,0.1-0.5,0.2c-0.5,0.7,2-0.5,1.7,0l-0.1,0
		c0.3-0.1,0.3,0.1,0.4,0c0.9-0.5-0.5,0.2,0-0.2c0.8-0.4,0.5-0.1,1.1-0.4c-0.2,0.2,0.2,0,0.3,0.1c-0.4,0.4,0,0.4-0.5,0.8
		c0.3-0.1,1.1-0.4,1.2-0.3c-0.5,0.4-0.6,0.3-0.7,0.5l0.5-0.2c0,0.1-0.1,0.2-0.4,0.3c0,0.1,0.7-0.2,0.4,0l-0.5,0.2
		c0.2,0,0.2,0.1,0.2,0.2c-0.3,0.1-0.3,0.1-0.2,0c-0.6,0.4,0.4,0,0.3,0c0.2-0.1,0.2-0.3,0.7-0.5c0,0.1,0.7-0.2,0.2,0.1l-0.5,0.2
		c0.4,0,0.6-0.2,0.5,0c0,0-0.1,0.1-0.2,0.1c0.6-0.2,0.2,0.2,0.2,0.4l-0.1,0c0.2,0,0.6-0.2,0.6-0.2c0.2-0.2,0.3-0.3,0.8-0.5
		c-0.7,0.5,0.9-0.3,0.6,0.1c-0.3,0.1-0.6,0.3-0.3,0.1c-0.8,0.4-1.4,0.7-1.8,0.8c0.2,0,0.4,0,0,0.2l0.7-0.4c0,0,0,0.1,0,0.1
		c0.4-0.2,0.7-0.5,1-0.6c0.3,0-0.7,0.5-0.4,0.3c0.4,0,0.8-0.4,0.6-0.1c-0.1,0-0.2,0.1-0.1,0c-0.2,0.3,0.3,0.2-0.6,0.7
		c-0.2,0.1-0.4,0.2-0.4,0.1l0.1-0.1c-0.7,0.2,0.2,0-0.6,0.4c0.4-0.3,0.4-0.1,0.4,0.1l0.5-0.3c1.6-0.6-1,0.6-0.7,0.7
		c0.4-0.1,0.1-0.1,0.5-0.2c0,0.1-0.5,0.4-0.2,0.5c-0.2,0.2-0.4,0.4-1,0.7c0.3,0-0.1,0.4,0.5,0.1c0.4-0.4-0.7,0.2,0-0.4l0.6-0.3
		c0,0.1,0.4,0.1,0.2,0.3c0.1-0.1,0.2-0.2,0.4-0.2c0.3,0,0.9-0.2,0.8,0c-0.5,0.3-0.5,0.2-0.5,0.1c-0.4,0.3,0,0.1-0.1,0.4
		c-0.4,0.3,0-0.1-0.5,0.1l0.2,0.1c0,0-0.1,0-0.1,0.1c0.8-0.4,0,0.2,0.3,0.2c0.1,0.3,1.2-0.3,1.8-0.5c-0.2,0.2-0.4,0.3-0.6,0.4
		c0.3-0.3,0-0.1-0.2,0c0.1,0-0.6,0.6-1,0.7c0.3,0,0.4-0.3,0.6-0.3l0.1,0.2c0.4-0.2,0.4-0.4,0.8-0.4c0.1,0,0.1,0.1,0.1,0.2
		c-0.2,0.1-0.6,0.4-0.6,0.3c-0.1,0.1-0.1,0.2,0.3,0c0.3-0.3,0.4,0,1-0.4l-0.3,0.3c0,0-0.3,0.1-0.2,0c-0.6,0.4,0.2,0,0.3,0
		c-0.1,0.1-0.1,0.2-0.3,0.4c0.2-0.1,0.1,0.1-0.2,0.3c0.1,0,0.4-0.2,0.6-0.3l0.1,0.2c-0.3,0.2-1.2,0.7-1.3,0.8c0.3-0.1,1-0.5,1-0.4
		c-0.7,0.3-0.4,0.4-1.2,0.8c-0.4,0.3-0.3,0.5-0.1,0.5c0.5-0.2,0.2-0.3,0.7-0.5c0.3,0.2,1.7-0.6,1.6-0.3l0.1-0.1c0.4,0,0.3,0,0.7-0.2
		c-0.6,0.3-1.6,1.1-1.3,1.2c0.3-0.2,0.5-0.5,1-0.7l0.2,0.1c0,0-0.2,0.1-0.2,0.1c0.3,0-0.7,0.7,0.1,0.3l-0.8,0.6l0.4-0.3
		c0.3-0.2,0.5-0.1,0.6-0.1c0.4-0.1,0.2,0.1-0.2,0.5c0.2-0.2,0.8-0.6,1-0.5c-1,0.6-0.2,0.4-0.8,0.7c0,0-0.2,0.3,0.2,0.1l-0.6,0.4
		c0.9-0.5,0.9-0.3,1.2-0.3c-1.2,0.7,0.2,0.1-0.9,0.8c0.8-0.4,0.4,0,1.1-0.3c0.1,0.1-0.7,0.5-0.9,0.7l0.3-0.1
		c-0.4,0.3-0.3,0.5-0.5,0.7l0.8-0.3l-0.3,0.2c0.2-0.1,0.3-0.1,0.6-0.3l0,0.1c0.8-0.4,0.3-0.1,0.6-0.1c-0.1,0.1-0.3,0.2-0.4,0.2
		c0,0.1-0.4,0.3-0.6,0.4c0.2-0.2,1.5-0.6,1.8-1c0.3-0.2,0.6-0.2,0.5-0.1l-0.7,0.4l0.8-0.4c0.1,0-0.3,0.3-0.3,0.4
		c-0.1,0-1.4,0.6-1.3,0.8c-0.1,0-0.6,0.1-0.7,0.2c0,0.1-0.1,0.1-0.4,0.2c0.3,0,0.5-0.2,0.6-0.1c-0.6,0.4-0.8,0.5-1,0.8l0.4-0.4
		c0.1,0,0.1-0.1,0.2-0.1c0-0.1,0.1-0.1,0.4-0.3c0,0,0.9-0.3,0.5-0.1c0.9-0.7,0.9-0.2,1.4-0.6c0.2-0.1,0.3,0,0,0.2
		c-0.5,0.2-0.7,0.5-1.1,0.7c0.2-0.1,0.4-0.4,0.7-0.4c0.1,0-0.3,0.3-0.5,0.5l-0.1,0l-0.2,0.3c0.3-0.2,0.5-0.4,0.7-0.4
		c-0.1,0.1,0.1,0.1-0.2,0.2c-0.5,0.2-1,0.6-1.2,0.6c0.1,0,0.3,0.2,0.8-0.2l0,0.1c0.2-0.2,0.6-0.6,0.8-0.5l-0.1,0.1l0.5-0.2l-0.3,0.2
		c0.2-0.1,0.3-0.2,0.3-0.1c-0.2,0.1-0.2,0.2-0.5,0.3c0.1,0.1,0.4-0.1,0.6-0.2c0.1,0,0,0.1-0.4,0.3c0,0.1,0.1,0.3-0.2,0.5
		c0.4,0,0.1-0.1,0.6-0.3c-1,0.7-0.2,0.7,0.1,0.8c0.9-0.6,0.1,0,1-0.5c-0.3,0.1-0.6,0.6-1,0.6l0.2,0.1c-0.5,0.4-0.5,0-1.2,0.6
		c0.1,0.1,1.2-0.4,0.9-0.1c-0.7,0.3,0.3,0-0.5,0.4c-0.3,0.1-0.2,0-0.3,0l-0.1,0.1c0,0.4,0.8-0.4,1.4-0.5c0.2,0.1-0.5,0.4-0.8,0.6
		c-0.1,0.1,0,0.1,0.2,0.1c-0.5,0.1,0.3-0.4,0.8-0.6c-0.7,0.5,0.1,0.3,0.4,0.1c0.7-0.7-0.1-0.2,0.7-0.9c-0.3,0.1-0.9,0.5-0.7,0.2
		c0.4-0.1,0.4-0.2,0.5-0.3c-0.4,0.3-0.2,0-0.4,0.1c0.3-0.2,1-0.5,1.1-0.7l-1,0.5c0.1-0.1,0.7-0.4,0.4-0.4c0.5-0.2,0.7-0.5,1-0.4
		c0.7-0.6-0.6,0-1,0c0.1,0,0.2-0.1,0.3-0.1c-0.3,0.1-0.3,0.1-0.4,0c0.2-0.2,0.5-0.2,0.7-0.3l-0.1-0.1c0,0,0,0,0.1,0
		c-0.1,0-0.3,0,0-0.1c0.3-0.1,0.6-0.3,0.9-0.4l-0.7,0.2c0.3-0.2,0.5-0.4,0.7-0.5l-0.3-0.2l0.6-0.4c-0.1,0-0.3,0.1-0.3,0.2
		c0.1-0.2-1.3,0.3,0-0.4c-0.6,0.1-0.4-0.1-0.9-0.1c0.7-0.2,0.6-0.6,1-0.6c0.2-0.3-0.5,0.1-0.6,0.1c0.2-0.2,0.9-0.6,1.1-0.6l-0.3,0.1
		l0.1-0.1l-0.4,0.1c0.3-0.3,0.6-0.4,0.7-0.5l-0.6,0.3l0.3-0.3c-0.2,0.2-0.4,0.2-0.5,0.1l0.1-0.1l-0.2,0c0.4-0.1,0.1-0.1,0.5-0.3
		c0-0.1,0-0.1-0.2-0.2l-0.4,0.2c-0.4,0,0.6-0.3,0.5-0.5l-0.4,0.3c0.6-0.6-0.6-0.1-0.2-0.5c0.1,0,0.6-0.3,0.5-0.2
		c-0.2,0-0.2-0.3-0.8-0.1c0.6-0.4,0.8-0.5,1-0.8c-0.1-0.1-0.2-0.1-0.5,0.1c0.2-0.2-0.3-0.2,0.2-0.5c-0.4,0.2,0-0.1-0.3,0l0.2-0.1
		l-0.4,0.3c0.9-0.7-0.7,0,0.1-0.6l0.1,0l-0.2,0c0.2-0.1,0.3-0.2,0.6-0.3l-0.1-0.4l-0.3,0.3c-0.1,0-0.5,0.2-0.3-0.1
		c0.7-0.3,0-0.1,0.5-0.4l0.2,0c-0.1-0.1-0.1-0.1-0.5,0.2c-0.2,0,0.8-0.6,0.3-0.4l0,0.1c-0.2,0.2-0.6,0.3-0.7,0.3
		c0.1-0.1,0.2-0.2,0.3-0.2c-0.2,0-0.1-0.3-0.3-0.2c0.1-0.1,0.4-0.3,0.6-0.3c-0.5,0,0-0.1-0.5-0.1l0.3-0.1l-0.3,0.1l0.5-0.4l-0.3,0.2
		c-0.1,0-0.3,0-0.2-0.1l0.4-0.2c-0.3-0.1,0.5-0.6-0.1-0.5c0.1-0.1,0.2-0.1,0.3-0.1c-0.7,0.2,0.6-0.5-0.2-0.3
		c0.1-0.1,0.3-0.2,0.4-0.2l-0.3,0.1l0.5-0.3l-0.8,0.4l0.5-0.3l-0.3,0.1c0.9-0.6,0.1-0.3,0.8-0.9l-0.6,0.4c-1.5,0.5,0.4-1.1-0.4-1.1
		l0.5-0.3l-0.7,0.2c0.4-0.3,0.5-0.2,0.7-0.4c-0.4,0-0.8,0.4-1,0.3c0.3-0.3,0.4-0.2,0.6-0.2c-0.3,0-0.7-0.1-0.5-0.4
		c-0.1,0-0.2,0.1-0.2,0.1c-0.3,0-0.1-0.3-0.2-0.4c0.2-0.1,0.3-0.1,0.4-0.1c0-0.1,0.1-0.2-0.1-0.1l0.5-0.2c0-0.1-0.5-0.1,0-0.4
		c-0.2,0.1-0.6,0.3-0.6,0.2c0.7-0.5-0.4,0-0.1-0.4c0.2-0.1,0.3,0,0.3,0c0.2-0.2-0.2,0-0.5,0l0.3-0.2l-0.6-0.1
		c0.7-0.5-0.3-0.2,0.3-0.5c0-0.1-0.3,0.3-0.5,0.2c0.3-0.2-0.2,0,0.3-0.3l0.1,0l-0.1-0.1l0.5-0.2c-0.2,0-0.7,0.2-1.1,0.4
		c0.2-0.2-0.1-0.2,0.4-0.5l0.1,0c-0.3-0.1,1.2-1.1,0.2-0.8c0.1-0.1,0.2-0.1,0.2-0.1l0-0.2l0.4-0.2l-0.7,0.1l0.3-0.1
		c0-0.2-0.2-0.4-0.4-0.5l0.1,0c-0.5,0,0.1-0.3-0.2-0.3c0.1,0,0.1,0,0.1,0l-0.1-0.1l0.3-0.1c-0.6,0.2,0.6-0.7,0.1-0.4
		c-0.3,0.1-0.6,0.1-0.9,0.3c-0.1-0.1,0.3-0.2,0.5-0.4c0-0.1-0.5,0.1-0.3-0.2l0.3-0.1c-0.1,0-0.3,0-0.4-0.1l0.1,0
		c-0.6,0.1,0.6-0.6-0.5-0.1c0.2-0.2-0.1-0.2,0.5-0.5c-0.4,0-0.7-0.1-1-0.1c0.8-0.5-0.1,0,0.3-0.4l-0.4,0.3c-0.2-0.2,0.7-1.1,0.4-1.3
		l0.4-0.3l-0.5,0.2c0-0.4,0-0.9-0.1-1.2c-0.3,0-0.9,0.2-0.8,0l0.1,0c-0.4-0.1-0.7-0.2-0.6-0.6c0.2-0.1,0.3-0.2,0.5-0.2
		c-0.5,0.2-0.1-0.1-0.1-0.2l-0.3,0.2c-0.5,0.2-0.1-0.2,0.2-0.4l-0.5,0.1c0,0,0.1-0.1,0.2-0.1l-0.2,0.1l0.6-0.4c-0.1,0-0.4,0-1,0.2
		c0.2-0.1,0.3-0.3,0.4-0.3l0-0.5l-0.2,0.2c-0.4,0.2-0.8,0.3-0.6,0.1c0.4-0.1,0.6-0.3,1-0.5c-0.3,0.1-0.4,0.3-0.6,0.4
		c-0.3,0.1-0.6,0-0.4-0.1l0.2-0.1c-0.2,0,0.5-0.5,0.5-0.5c-0.4,0.1-0.1-0.1-0.9,0.3c-0.2,0,0.5-0.3,0.6-0.4
		c-0.4,0.1-0.2-0.2,0.1-0.4c-1.2,0.5,0.2-0.5-0.7-0.1l0.5-0.4c-0.3,0.1-0.8,0.4-1,0.4c0.2-0.2,0.7-0.4,0.9-0.6l-1,0.4
		c0.8-1-0.2-1.2,0.4-2.1c-0.3-0.1-0.9-0.2-0.9-0.5l0.1,0l0.1-0.4l-0.3,0.4c-0.1,0-0.3,0.1-0.4,0c0.3-0.5,0.6-1.1-0.1-1.2
		c-1.2,0.3,0.9-0.6,0-0.4c0.1,0,0.3-0.1,0.4-0.1c-0.5,0-0.7-0.1-1.5,0c1.1-0.5-0.1-0.1,0.5-0.4l-0.5,0.2c0.2-0.2,0.3-0.4,0.6-0.5
		l-0.6,0.2l0.5-0.2c0-0.1-0.6-0.2,0.3-0.8c-0.9,0-0.9-0.6-0.9-1.1c-0.4,0.1-0.5,0-0.6-0.1l0.5-0.4c-0.2,0-1,0.2-0.6,0
		c0.1,0,0.1-0.1,0.1-0.1c-0.2,0,0.1-0.3-0.5-0.1c0-0.1,0.2-0.4,0.8-0.6c-0.9,0.4,0-0.3,0-0.3s-0.1-1.6-0.8-3.2
		c-0.8-1.5-2.2-2.9-5.1-2.5c-0.5,0.1-0.8,0.1-1.4,0.4c-0.2,0,0.6-0.4,0.1-0.2c-0.2,0.3-1.2,0.5-1.7,0.8l-0.2,0
		c-0.3,0.1,0.4,0-0.2,0.2l0.9-0.3c-0.1,0.1-0.3,0.2-0.5,0.4c0.4-0.1,1.5-0.5,1.1-0.2l-0.1,0c0.1,0.1-0.5,0.3-0.6,0.4l0,0l-0.4,0.3
		c0.3-0.2-0.5,0-0.4,0c-0.2,0.3,0.2-0.1,0.3-0.1c0.1,0.1-0.4,0.2-0.7,0.3l0.1,0.1c-0.4,0.2,0-0.1-0.4,0.1l0.5,0
		c-1,0.5,0.6,0-0.4,0.4c-0.3,0-0.3,0.2-0.7,0.3l0.2,0.3c-0.1,0.1-0.3,0.1-0.3,0.1c-0.3,0.2,0.3,0,0.3,0c-0.3,0.1,0.1,0.2-0.6,0.5
		c-0.4,0.4,0.9-0.3,0.6,0.1c-0.4,0.2-0.2-0.1-0.5,0.2l0.2,0.1c-0.2,0.1-0.7,0.3-0.6,0.1c-0.3,0.7-2.3,2-1.6,2.2
		c-0.5,0.3-0.3,0.1-0.7,0.2c0.8,0.1-0.8,0.9-0.7,1.2l0.4-0.2c-1.1,1-0.1,1.1-0.4,1.8l0.3-0.2c0.4-0.1,0.5,0,0.7,0
		c-0.2,0.1-0.9,0.3-0.6,0.4c0.1-0.1,0.3-0.2,0.5-0.3c-0.9,0.9-0.2,1.6-0.4,2.5c0.7,0.7,0.4,2,1,2.8c-0.1-0.1,0.9-0.5,0.7-0.3
		c-1.5,1.1,0.5,0.3-0.5,1.1c0.8,0.2-0.4,1.4,1.1,1.2l-0.5,0.2c-0.2,0.2,0.2,0,0.2,0.1l-0.1,0.1c-0.1,0.3,0.5,0.2,0.3,0.4l0.5-0.3
		c0.1,0.1-0.4,0.3,0,0.2l-0.3,0.1l0.6-0.1c-0.9,0.4,0.1,0.3-0.3,0.6c0.2,0,0.7,0.1,0.7,0.4c-0.4,0.3-0.3,0.5-0.5,0.8
		c0.3,0.2,0.6,0.6,0.7,1.1l0.6-0.3l0.1,0.1c-0.1,0.1-0.2,0.1-0.3,0.1c-0.6,0.4,0.3,0.1-0.1,0.4c0.5-0.3,0-0.1,0-0.2
		c0.2-0.2,0.8-0.4,0.6-0.2l-0.1,0.1l0.3-0.1c-0.5,0.2-0.6,0.4-1.1,0.7c0.3,0.3,1.2,0.1,1.1,0.5c-0.5,0.2,0.3,0.2-0.7,0.6
		c0.4,0,0.7-0.4,1.4-0.6c0,0.1,0.3,0,0,0.2c-0.2,0.1-0.5,0.3-0.6,0.3l0.1,0.1c-0.1,0-0.2,0.1-0.3,0.1c0.6,0-0.3,0.8,0.3,0.8
		c0.3-0.1,0-0.1,0.4-0.3c0.8-0.1-0.5,0.5,0.1,0.5l-0.5,0.2c0.3-0.1,0.7-0.3,0.4,0.1c-0.5,0.3-0.5,0.1-0.7,0.2c0,0.1,0.3,0.2,0.7-0.1
		c0.2,0-0.2,0.3-0.3,0.4c0.1-0.1,0.3-0.3,0.6-0.3c-0.2,0.3-0.1,0.5-0.1,0.7c-0.1,0.1-0.3,0.2-0.4,0.2
		C145.8,164.3,144.6,164.9,144.8,165.1"/>
	<path class="st0" d="M152.2,172.3l0-0.1c-0.1,0.1-0.2,0.1-0.4,0.2L152.2,172.3z"/>
	<path class="st0" d="M150.8,169c0,0-0.1,0-0.2,0.1C150.7,169.1,150.8,169.1,150.8,169"/>
	<path class="st0" d="M149.5,168.8c0.1,0,0.2-0.1,0.4-0.2C149.8,168.6,149.7,168.7,149.5,168.8"/>
	<path class="st0" d="M154.5,173.3c-0.1,0-0.1,0-0.2,0.1C154.4,173.4,154.5,173.3,154.5,173.3"/>
	<path class="st0" d="M156.9,178.3C156.9,178.3,156.9,178.3,156.9,178.3C156.9,178.3,156.9,178.3,156.9,178.3"/>
	<path class="st0" d="M157.5,177.6c0,0,0,0-0.1,0C157.4,177.6,157.5,177.6,157.5,177.6"/>
	<path class="st0" d="M153.7,172.2c0,0-0.1,0-0.2,0C153.5,172.3,153.6,172.3,153.7,172.2"/>
	<path class="st0" d="M157.3,177.6L157.3,177.6C157.3,177.5,157.2,177.5,157.3,177.6L157.3,177.6z"/>
	<path class="st0" d="M156.9,178.4c0,0,0-0.1,0-0.1C156.8,178.4,156.8,178.4,156.9,178.4"/>
	<path class="st0" d="M156.2,174.7C156.2,174.7,156.2,174.7,156.2,174.7C155.9,174.8,156,174.7,156.2,174.7"/>
	<polygon class="st0" points="156.3,177.8 156.3,177.8 156.1,177.8 	"/>
	<path class="st0" d="M156.8,178.8c0,0,0,0-0.1,0c0,0,0,0,0,0.1C156.8,178.9,156.8,178.9,156.8,178.8"/>
	<path class="st0" d="M156,176.1c0.2-0.1,0.3-0.2,0.4-0.2C156.4,175.9,156.3,176,156,176.1"/>
	<path class="st1" d="M92.3,49.5c0,0.3-0.1,0.6-0.3,0.9c-0.2,0.3-0.5,0.5-0.8,0.5L90.9,51l-12,2.8c-0.8,2.8-1.8,5.5-3,7.9
		c-1.2,2.5-2.6,4.7-4.1,6.7c-2.1,2.7-4.5,5.1-7.2,7.3c-2.7,2.2-5.6,4-8.7,5.5c-2.7,1.3-5.5,2.4-8.2,3.1c-2.8,0.7-5.4,1.2-8,1.2
		c-1.3,0-2.6-0.1-3.8-0.2c-1.3-0.1-2.4-0.4-3.4-0.7c-2.2-0.8-3.6-1.9-4.3-3.4c-1.3-2.7-1.2-5.5,0.4-8.2c1.6-2.8,4.8-5.5,9.6-8.1
		c4.1-2.2,9.3-4.3,15.7-6.5c2.4-0.8,4.8-1.5,7.3-2.3c2.5-0.7,5-1.4,7.6-2.1c0.4-1.3,0.7-2.5,1-3.8c0.3-1.3,0.5-2.6,0.7-4
		c0.7-4.6,0.9-8.8,0.5-12.6c-0.4-3.8-1.4-7.1-3.1-9.7c-1.5-2.3-3.2-4.1-5.3-5.3c-2.1-1.2-4.3-1.8-6.6-1.9s-4.6,0.2-6.9,1.1
		s-4.4,2.2-6.3,3.9c-1.5,1.4-2.9,3-4.1,4.8c-1.2,1.8-2.3,3.6-3.2,5.6c-0.9,1.9-1.6,3.8-2.2,5.6c-0.6,1.9-1,3.6-1.2,5.1
		c-0.2,1.6-0.2,2.9,0,4c0.2,1.1,0.6,1.9,1.2,2.3c0.6,0.5,0.8,1,0.6,1.5c-0.3,0.5-0.7,1-1.5,1.3c-0.7,0.3-1.6,0.4-2.6,0.4
		c-1-0.1-1.9-0.5-2.8-1.3c-1.3-1.2-2.1-2.9-2.4-5c-0.3-2.1-0.1-4.4,0.6-6.9c0.7-2.5,1.8-5.1,3.4-7.7c1.6-2.7,3.6-5.1,5.9-7.4
		c2.4-2.3,5.1-4.3,8.3-6c3.1-1.7,6.6-2.9,10.4-3.5c4.6-0.7,8.8-0.8,12.6,0c3.8,0.7,6.9,2.3,9.5,4.8c2.5,2.5,4.3,5.9,5.3,10.3
		c1,4.4,1,9.9,0.1,16.4c-0.1,0.9-0.3,1.8-0.4,2.6c-0.2,0.8-0.4,1.7-0.6,2.5l11.3-2.7l0.2-0.1c0.4-0.1,0.7,0,0.9,0.1
		C92.2,48.9,92.3,49.2,92.3,49.5 M30.3,79.9c0.6,1.1,1.3,1.9,2.3,2.4c1,0.5,2,0.7,3.2,0.7c1.2,0,2.4-0.2,3.8-0.5
		c1.3-0.4,2.6-0.8,3.9-1.3c1.3-0.5,2.4-1.1,3.5-1.6c1.1-0.6,2-1.1,2.8-1.6c4.3-2.5,8-5.5,11-9c3.1-3.5,5.4-7.6,7.1-12.4
		c-2.4,0.6-4.8,1.3-7.1,2c-2.3,0.7-4.5,1.4-6.7,2.1C41,65.1,33.1,69.5,30.6,73.9C29.4,75.9,29.4,77.9,30.3,79.9 M38,55.3
		c-0.3-0.9-0.2-2.3,0.3-4.1c0.5-1.8,1.2-3.7,2.1-5.8c0.9-2.1,1.9-4.3,3-6.6c1.1-2.2,2.1-4.3,3-6.2c0.9-1.9,1.6-3.5,2-4.9
		c0.5-1.3,0.5-2.2,0.2-2.5c-0.2-0.2-0.2-0.3,0.1-0.6c0.3-0.2,0.7-0.4,1.2-0.5c0.5-0.1,1.1-0.2,1.7-0.3c0.7,0,1.3,0,1.9,0.2
		c0.6,0.2,1.1,0.5,1.5,0.9c0.4,0.4,0.7,1,0.8,1.8c0.2,1.5,0,3.1-0.6,4.8c-0.5,1.7-1.2,3.5-2.1,5.3c-0.9,1.8-1.9,3.7-2.9,5.5
		c-1,1.9-2,3.6-2.9,5.4c-0.9,1.7-1.7,3.4-2.2,4.9c-0.6,1.5-0.8,2.9-0.8,4.1c0,0.4-0.2,0.7-0.7,1c-0.5,0.3-1.1,0.5-1.8,0.5
		c-0.7,0-1.4-0.2-2.1-0.6C38.9,57.3,38.4,56.5,38,55.3"/>
	<path class="st1" d="M108.5,33.1c0,0.6-0.1,1.1-0.4,1.4c-0.3,0.6-0.8,0.9-1.5,0.9c-0.5,0-0.9-0.2-1.3-0.5c-0.4-0.3-0.6-0.7-0.6-1.2
		c0-0.3,0.1-0.6,0.3-0.9c0.2-0.3,0.4-0.5,0.7-0.7c-0.3-0.6-0.7-0.8-1.1-0.8c-0.4,0-0.9,0.2-1.3,0.5c-0.5,0.3-1,0.8-1.4,1.4
		c-0.5,0.6-1,1.2-1.4,1.7c-0.8,1.1-1.6,2.3-2.4,3.7c-0.8,1.4-1.4,2.8-2,4.3c-0.6,1.5-1.1,2.9-1.4,4.4c-0.4,1.4-0.5,2.7-0.6,3.9
		c0,1.2,0.1,2.2,0.5,2.9c0.4,0.8,0.9,1.2,1.8,1.4c0.6,0.1,1.2-0.1,2-0.8c0.7-0.7,1.5-1.5,2.2-2.5c0.7-1,1.4-2.1,2.1-3.3
		c0.7-1.2,1.3-2.3,1.8-3.3c-0.8-0.4-1.4-0.9-1.7-1.7c-0.3-0.8-0.4-1.6-0.3-2.5c0.1-0.8,0.4-1.6,0.9-2.2c0.5-0.6,1.2-0.9,2-0.9
		c0.3,0,0.6,0,1.1,0.1c0.4,0,0.8,0.2,1.1,0.6c0.3,0.4,0.5,1,0.5,1.8c0,0.8-0.2,2-0.6,3.6c1.6,0,2.8-0.3,3.8-0.6
		c0.9-0.4,1.7-0.8,2.2-1.3c0.5-0.5,0.9-0.9,1.1-1.4c0.2-0.5,0.3-0.7,0.4-0.9c0.1-0.3,0.3-0.4,0.6-0.5c0.3-0.1,0.5,0,0.7,0.1
		c0.2,0.1,0.4,0.3,0.5,0.6c0.1,0.3,0.1,0.5,0,0.9c-0.3,0.7-0.8,1.4-1.5,2.1c-0.7,0.6-1.4,1.2-2.3,1.6c-0.9,0.4-1.9,0.8-3,1
		c-1.1,0.2-2.2,0.3-3.3,0.3c-0.6,1.2-1.2,2.6-2.1,4.1c-0.8,1.5-1.8,2.9-2.9,4.2c-1.1,1.3-2.3,2.3-3.6,3.2c-1.3,0.8-2.7,1.2-4.2,1.1
		c-2-0.2-3.5-1-4.6-2.5c-1.1-1.5-1.7-3.2-1.8-5.3c0-1.6,0.1-3.2,0.5-4.9c0.4-1.7,0.9-3.4,1.6-5.1c0.7-1.7,1.6-3.2,2.6-4.7
		c1-1.5,2.2-2.8,3.5-3.9c1.3-1.1,2.7-1.9,4.2-2.5c1.5-0.6,3.1-0.8,4.8-0.8c0.7,0,1.4,0.2,1.9,0.5c0.5,0.3,0.9,0.7,1.2,1.1
		c0.3,0.4,0.5,0.9,0.7,1.4C108.3,32.2,108.4,32.7,108.5,33.1"/>
	<path class="st1" d="M137.6,36.3c-0.1,1.3-0.4,2.7-0.9,4.2c-0.5,1.5-1.1,2.9-1.7,4.3c-0.6,1.4-1.3,2.8-1.9,4
		c-0.7,1.3-1.2,2.4-1.5,3.3c-0.4,0.9-0.5,1.7-0.4,2.3c0.1,0.6,0.5,0.9,1.3,0.9c0.4,0,0.8-0.3,1.5-0.9c0.6-0.6,1.3-1.3,2.1-2.2
		c0.7-0.9,1.5-2,2.3-3.1c0.8-1.2,1.6-2.3,2.3-3.5c0.7-1.1,1.3-2.2,1.9-3.3c0.6-1,0.9-1.9,1.2-2.6c0.1-0.3,0.3-0.5,0.6-0.6
		c0.3-0.1,0.5-0.1,0.8,0c0.2,0.1,0.4,0.2,0.6,0.5c0.1,0.2,0.1,0.5,0,0.8c-0.3,0.7-0.8,1.6-1.4,2.7c-0.6,1.2-1.3,2.4-2.1,3.7
		c-0.8,1.3-1.7,2.6-2.6,4c-0.9,1.3-1.9,2.6-2.9,3.7c-1,1.1-2,2-3,2.7c-1,0.7-2,1.1-3,1.1c-0.8,0-1.5-0.1-2-0.6c-0.6-0.4-1-1-1.4-1.7
		c-0.4-0.7-0.6-1.5-0.7-2.4c-0.1-0.9-0.1-1.8,0-2.7c0.2-1.6,0.6-3.2,1.1-4.8c0.6-1.6,1.2-3.1,1.8-4.5c0.6-1.4,1.3-2.8,1.9-4
		c0.6-1.2,1.1-2.2,1.4-3.1c0.3-0.9,0.4-1.6,0.3-2c-0.1-0.5-0.6-0.7-1.4-0.7c-0.4,0-1,0.4-1.8,1c-0.8,0.7-1.6,1.5-2.6,2.5
		c-0.9,1-1.9,2.1-2.8,3.3c-0.9,1.2-1.8,2.4-2.5,3.5c-0.7,1.5-1.5,3.1-2.3,4.6c-0.8,1.5-1.5,2.9-2.2,4.3c-0.6,1.3-1.1,2.5-1.4,3.5
		c-0.3,1-0.3,1.8,0,2.4c0.2,0.3,0,0.6-0.4,1c-0.4,0.3-0.9,0.5-1.6,0.5c-0.6,0-1.3-0.2-2-0.6c-0.7-0.4-1.2-1.2-1.6-2.4
		c-0.3-0.9-0.3-2.2,0.1-3.7c0.4-1.5,0.9-3.2,1.5-4.9c0.7-1.8,1.4-3.5,2.2-5.4c0.8-1.8,1.6-3.5,2.2-5.1c0.7-1.5,1.2-2.9,1.5-4
		c0.3-1.1,0.3-1.8,0-2.1c-0.3-0.2-0.1-0.5,0.4-0.8c0.5-0.3,1.2-0.5,2-0.5c0.8,0,1.6,0.1,2.5,0.5c0.8,0.4,1.4,1.2,1.8,2.4
		c0.2,0.5,0.2,1.1,0.2,1.7c0,0.6-0.1,1.2-0.3,1.9c0.7-0.9,1.5-1.7,2.3-2.5c0.8-0.8,1.5-1.5,2.3-2.1c0.8-0.6,1.6-1.1,2.3-1.4
		c0.7-0.4,1.5-0.5,2.2-0.5c1.5,0,2.7,0.6,3.4,2C137.6,32.4,137.8,34.2,137.6,36.3"/>
	<path class="st1" d="M166.3,36.3c-0.1,1.3-0.4,2.7-0.9,4.2c-0.5,1.5-1.1,2.9-1.7,4.3c-0.6,1.4-1.3,2.8-1.9,4
		c-0.7,1.3-1.2,2.4-1.5,3.3c-0.4,0.9-0.5,1.7-0.4,2.3c0.1,0.6,0.5,0.9,1.3,0.9c0.4,0,0.8-0.3,1.5-0.9c0.6-0.6,1.3-1.3,2.1-2.2
		c0.7-0.9,1.5-2,2.3-3.1c0.8-1.2,1.6-2.3,2.3-3.5c0.7-1.1,1.3-2.2,1.9-3.3c0.6-1,0.9-1.9,1.2-2.6c0.1-0.3,0.3-0.5,0.6-0.6
		c0.3-0.1,0.5-0.1,0.8,0c0.2,0.1,0.4,0.2,0.6,0.5c0.1,0.2,0.1,0.5,0,0.8c-0.3,0.7-0.8,1.6-1.4,2.7c-0.6,1.2-1.3,2.4-2.1,3.7
		c-0.8,1.3-1.7,2.6-2.6,4c-0.9,1.3-1.9,2.6-2.9,3.7c-1,1.1-2,2-3,2.7c-1,0.7-2,1.1-3,1.1c-0.8,0-1.5-0.1-2-0.6c-0.6-0.4-1-1-1.4-1.7
		c-0.4-0.7-0.6-1.5-0.7-2.4c-0.1-0.9-0.1-1.8,0-2.7c0.2-1.6,0.6-3.2,1.1-4.8c0.6-1.6,1.2-3.1,1.8-4.5c0.6-1.4,1.3-2.8,1.9-4
		c0.6-1.2,1.1-2.2,1.4-3.1c0.3-0.9,0.4-1.6,0.3-2c-0.1-0.5-0.6-0.7-1.4-0.7c-0.4,0-1,0.4-1.8,1c-0.8,0.7-1.6,1.5-2.6,2.5
		c-0.9,1-1.9,2.1-2.8,3.3c-0.9,1.2-1.8,2.4-2.5,3.5c-0.7,1.5-1.5,3.1-2.3,4.6c-0.8,1.5-1.5,2.9-2.2,4.3c-0.6,1.3-1.1,2.5-1.4,3.5
		c-0.3,1-0.3,1.8,0,2.4c0.2,0.3,0,0.6-0.4,1c-0.4,0.3-0.9,0.5-1.6,0.5c-0.6,0-1.3-0.2-2-0.6c-0.7-0.4-1.2-1.2-1.6-2.4
		c-0.3-0.9-0.3-2.2,0.1-3.7c0.4-1.5,0.9-3.2,1.5-4.9c0.7-1.8,1.4-3.5,2.2-5.4c0.8-1.8,1.6-3.5,2.2-5.1c0.7-1.5,1.2-2.9,1.5-4
		c0.3-1.1,0.3-1.8,0-2.1c-0.3-0.2-0.1-0.5,0.4-0.8c0.5-0.3,1.2-0.5,2-0.5c0.8,0,1.6,0.1,2.5,0.5c0.8,0.4,1.4,1.2,1.8,2.4
		c0.2,0.5,0.2,1.1,0.2,1.7c0,0.6-0.1,1.2-0.3,1.9c0.7-0.9,1.5-1.7,2.3-2.5c0.8-0.8,1.5-1.5,2.3-2.1c0.8-0.6,1.6-1.1,2.3-1.4
		c0.7-0.4,1.5-0.5,2.2-0.5c1.5,0,2.7,0.6,3.4,2C166.3,32.4,166.5,34.2,166.3,36.3"/>
	<path class="st1" d="M187.2,33.7c0-0.3,0.1-0.6,0.3-0.9c0.2-0.3,0.4-0.5,0.7-0.7c-0.2-0.5-0.5-0.7-0.9-0.7c-0.6,0-1.2,0.2-1.8,0.7
		c-0.7,0.5-1.4,1.3-2.2,2.3c-0.8,1-1.6,2.2-2.4,3.7s-1.7,3.1-2.5,4.9c-0.5,1.1-0.9,2.4-1.3,3.7c-0.3,1.3-0.5,2.6-0.6,3.8
		c0,1.2,0.1,2.3,0.4,3.2c0.3,0.9,0.8,1.5,1.5,1.8c0.5,0.2,1.1,0.2,1.7-0.2c0.6-0.4,1.2-0.9,1.8-1.7c0.6-0.7,1.2-1.7,1.9-2.7
		c0.6-1.1,1.3-2.2,1.9-3.3c0.6-1.2,1.2-2.3,1.8-3.5c0.6-1.2,1.1-2.2,1.6-3.2c0.6-1.3,1.1-2.5,1.6-3.7c0.5-1.2,1-2.2,1.3-3.1
		c0.4-0.9,0.6-1.7,0.7-2.4c0.1-0.6,0.1-1.1-0.2-1.3c-0.3-0.2-0.1-0.5,0.4-0.8c0.5-0.3,1.2-0.5,2-0.5c0.8,0,1.6,0.1,2.5,0.5
		c0.8,0.4,1.4,1.2,1.8,2.4c0.4,1.1,0.3,2.5-0.2,4.2c-0.5,1.6-1.1,3.3-2,5.1c-0.8,1.8-1.8,3.5-2.7,5.3s-1.8,3.3-2.4,4.6
		c-0.6,1.4-1,2.4-1.1,3.2c-0.1,0.8,0.3,1.2,1.2,1.1c0.4,0,0.8-0.4,1.5-0.9s1.3-1.3,2.1-2.3s1.5-2,2.3-3.1c0.8-1.1,1.6-2.3,2.2-3.4
		c0.7-1.1,1.3-2.2,1.9-3.2c0.6-1,0.9-1.9,1.2-2.5c0.1-0.3,0.3-0.5,0.6-0.6c0.3-0.1,0.5-0.1,0.8,0c0.2,0.1,0.4,0.2,0.6,0.5
		c0.1,0.2,0.1,0.5,0,0.8c-0.3,0.7-0.8,1.6-1.4,2.7c-0.6,1.2-1.3,2.4-2.1,3.7c-0.8,1.3-1.7,2.6-2.6,4c-0.9,1.3-1.9,2.6-2.9,3.7
		c-1,1.1-2,2-3,2.7c-1,0.7-2,1.1-3,1.1c-1.5,0.1-2.6-0.5-3.4-1.8c-0.7-1.3-1-3-0.8-5c-0.7,1.2-1.5,2.3-2.4,3.3
		c-0.8,1-1.7,1.8-2.7,2.4c-1,0.6-2,0.9-3.1,1.1c-1.1,0.1-2.3-0.1-3.6-0.6c-1.6-0.6-2.7-1.6-3.4-2.8c-0.7-1.2-1.1-2.6-1.2-4
		c-0.1-1.4,0-2.9,0.4-4.5c0.4-1.6,0.8-3,1.3-4.3c0.9-2.4,2-4.5,3.2-6.2c1.2-1.7,2.4-3.1,3.7-4.2c1.3-1.1,2.6-1.9,4-2.3
		c1.4-0.5,2.8-0.7,4.2-0.6c0.5,0,1,0.1,1.5,0.3c0.5,0.1,1,0.4,1.5,0.7c0.5,0.3,0.8,0.7,1.2,1.3c0.3,0.5,0.5,1.2,0.5,2
		c0,0.9-0.2,1.5-0.6,1.8c-0.3,0.4-0.7,0.5-1.2,0.5c-0.5,0-0.9-0.2-1.3-0.5C187.4,34.6,187.2,34.2,187.2,33.7"/>
	<path class="st1" d="M132.5,96.5c0,0.8-0.2,1.4-0.5,1.8c-0.4,0.8-1.1,1.2-2,1.2c-0.6,0-1.2-0.2-1.7-0.6c-0.5-0.4-0.7-1-0.7-1.6
		c0-0.4,0.1-0.8,0.4-1.2c0.2-0.4,0.5-0.7,0.9-0.9c-0.4-0.7-0.9-1.1-1.4-1.1c-0.5,0-1.1,0.2-1.8,0.7c-0.6,0.4-1.3,1-1.9,1.8
		c-0.7,0.8-1.3,1.5-1.9,2.3c-1.1,1.4-2.2,3-3.2,4.9c-1,1.9-1.9,3.8-2.7,5.7c-0.8,2-1.4,3.9-1.9,5.8c-0.5,1.9-0.7,3.6-0.7,5.2
		c0,1.6,0.2,2.9,0.7,3.9c0.5,1,1.3,1.6,2.3,1.8c0.8,0.2,1.7-0.2,2.6-1.1c1-0.9,1.9-2,2.9-3.3c1-1.4,1.9-2.8,2.8-4.4
		c0.9-1.6,1.7-3.1,2.4-4.4c-1.1-0.5-1.9-1.2-2.3-2.3c-0.4-1.1-0.5-2.2-0.4-3.2c0.2-1.1,0.6-2.1,1.3-2.9c0.7-0.8,1.5-1.3,2.6-1.3
		c0.4,0,0.8,0,1.4,0.1c0.6,0.1,1.1,0.3,1.5,0.8c0.4,0.5,0.7,1.3,0.7,2.4c0.1,1.1-0.2,2.7-0.9,4.8c2.1-0.1,3.8-0.3,5-0.9
		c1.3-0.5,2.2-1.1,2.9-1.7c0.7-0.6,1.2-1.2,1.4-1.8c0.2-0.6,0.4-1,0.5-1.1c0.2-0.4,0.4-0.6,0.7-0.7c0.3-0.1,0.7,0,1,0.1
		c0.3,0.2,0.5,0.4,0.7,0.7c0.2,0.3,0.2,0.7,0,1.1c-0.4,1-1.1,1.9-2,2.7c-0.9,0.8-1.9,1.5-3.1,2.1c-1.2,0.6-2.5,1-3.9,1.3
		c-1.4,0.3-2.9,0.4-4.3,0.4c-0.7,1.6-1.7,3.4-2.8,5.4c-1.1,2-2.4,3.8-3.9,5.5c-1.5,1.7-3.1,3.1-4.8,4.2c-1.7,1.1-3.6,1.6-5.6,1.4
		c-2.6-0.3-4.7-1.4-6.1-3.3c-1.5-1.9-2.3-4.3-2.4-7c-0.1-2.1,0.2-4.3,0.6-6.5c0.5-2.3,1.2-4.5,2.1-6.7c0.9-2.2,2.1-4.3,3.4-6.2
		c1.4-2,2.9-3.7,4.6-5.1c1.7-1.5,3.5-2.6,5.6-3.4c2-0.8,4.1-1.1,6.3-1c1,0.1,1.8,0.3,2.5,0.7c0.7,0.4,1.2,0.9,1.6,1.4
		c0.4,0.5,0.7,1.2,0.9,1.8C132.2,95.3,132.3,95.9,132.5,96.5"/>
	<path class="st1" d="M161.3,106.2c-0.4,0.9-1,2.1-1.8,3.6c-0.8,1.5-1.7,3.2-2.8,4.9c-1.1,1.7-2.2,3.5-3.5,5.3
		c-1.3,1.8-2.5,3.4-3.9,4.9c-1.3,1.5-2.7,2.7-4,3.6c-1.4,0.9-2.7,1.4-3.9,1.4c-1,0.1-1.9-0.2-2.7-0.6c-0.8-0.5-1.4-1.1-1.8-2
		c-0.5-0.9-0.8-1.9-0.9-3.1c-0.2-1.2-0.2-2.5,0-4c0.2-1.7,0.9-4.1,2-7.3c1.1-3.1,2.4-6.6,3.9-10.3c1.5-3.7,3.1-7.5,4.8-11.4
		c1.7-3.9,3.2-7.5,4.5-10.7c1.3-3.3,2.4-6,3.1-8.2c0.7-2.2,0.9-3.5,0.5-3.8c-0.4-0.3-0.2-0.7,0.5-1.1c0.7-0.4,1.6-0.7,2.6-0.7
		c1-0.1,2.1,0.2,3.2,0.7c1.1,0.5,1.9,1.6,2.4,3.1c0.4,1.1,0.3,2.8-0.3,5.1c-0.6,2.2-1.4,4.7-2.5,7.6c-1.1,2.8-2.4,5.9-4,9.1
		c-1.5,3.3-3,6.5-4.6,9.7c-1.5,3.2-3,6.3-4.4,9.2c-1.4,2.9-2.5,5.5-3.4,7.8c-0.9,2.2-1.4,4-1.5,5.3c-0.1,1.3,0.2,1.9,1.1,1.8
		c0.5-0.1,1.2-0.5,2-1.3c0.8-0.8,1.7-1.8,2.7-3c1-1.2,2-2.6,3.1-4.1c1-1.5,2-3,3-4.5c0.9-1.5,1.8-2.9,2.5-4.3
		c0.7-1.4,1.3-2.5,1.6-3.4c0.2-0.4,0.4-0.7,0.8-0.8c0.4-0.1,0.7-0.1,1,0c0.3,0.1,0.6,0.3,0.7,0.6
		C161.6,105.5,161.5,105.9,161.3,106.2"/>
	<path class="st1" d="M104,0l0.1,15.9l-0.8,0l0-1.4c-1,0.9-2.7,1.5-4.4,1.5c-3.3,0-6-2.5-6-5.8c0-3.3,2.6-5.8,5.9-5.9
		c1.8,0,3.3,0.5,4.5,1.4l0-5.8L104,0z M103.4,13.6l-0.1-6.9c-1-1-2.6-1.6-4.4-1.6c-2.9,0-5.2,2.3-5.2,5.1c0,2.8,2.4,5.1,5.2,5
		C100.8,15.2,102.3,14.6,103.4,13.6"/>
	<path class="st1" d="M119.3,10c0,3.2-2.7,5.8-6.1,5.9c-3.4,0-6.2-2.6-6.2-5.8c0-3.2,2.7-5.9,6.1-5.9C116.5,4.2,119.2,6.8,119.3,10
		 M118.5,10c0-2.8-2.5-5.1-5.4-5c-3,0-5.4,2.3-5.4,5.1c0,2.8,2.5,5.1,5.4,5C116.1,15.1,118.5,12.8,118.5,10"/>
	<path class="st1" d="M131.7,13.8c-1,1.2-2.5,2-4.1,2c-3.4,0-6.2-2.6-6.2-5.8c0-3.2,2.7-5.9,6.1-5.9c1.7,0,3.1,0.7,4.1,1.9l-0.5,0.5
		c-0.9-1-2.2-1.6-3.6-1.6c-3,0-5.4,2.3-5.4,5.1c0,2.8,2.5,5.1,5.4,5c1.4,0,2.7-0.7,3.6-1.8L131.7,13.8z"/>
	<path class="st1" d="M144.7,10.1l-10.4,0.1c0.2,2.8,2.4,4.7,5.1,4.7c1.7,0,3.3-0.7,4.3-1.9l0.6,0.5c-1,1.3-2.8,2.2-5,2.2
		c-3.4,0-5.8-2.6-5.8-5.8c0-3.2,2.3-5.8,5.7-5.9c3.4,0,5.5,2.4,5.5,5.8L144.7,10.1z M134.3,9.5l9.7-0.1c-0.2-2.8-1.9-4.7-4.8-4.7
		C136.4,4.8,134.4,6.9,134.3,9.5"/>
	<path class="st1" d="M147.2,13.9c1.2,0.5,2.8,0.9,4.4,0.9c2.8,0,3.7-1.3,3.7-2.5c0-1.4-1.7-2-3.9-2.4c-2.5-0.5-4.3-1.2-4.3-3
		c0-1.7,1.8-3,4.1-3c1.4,0,2.8,0.3,4.2,0.8l-0.2,0.6c-1.2-0.5-2.5-0.8-3.9-0.7c-1.9,0-3.4,1-3.4,2.3c0,1.3,1.4,1.8,3.8,2.3
		c2.6,0.5,4.5,1.2,4.5,3.1c0,1.7-1.2,3.2-4.5,3.3c-1.8,0-3.4-0.5-4.7-1L147.2,13.9z"/>
	<path class="st1" d="M94.1,65.6c2.3,1,4.5,2.5,6.5,4.4c2,1.9,3.6,4,4.9,6.4c1.2,2.4,1.9,4.8,2.1,7.4c0.2,2.6-0.3,5-1.6,7.3
		c-0.4,0.7-1.1,1.2-2.1,1.4c-1,0.2-2,0.2-3.1,0c-1-0.2-1.8-0.6-2.5-1c-0.6-0.5-0.7-1.1-0.3-1.7c1.5-2.5,2.3-5,2.4-7.4
		c0-2.4-0.3-4.6-1.2-6.5c-0.8-1.9-2-3.5-3.5-4.7c-1.5-1.2-3-1.8-4.5-1.8c-1,0-1.8,0.6-2.2,1.7c-0.4,1.1-0.6,2.6-0.5,4.3
		c0,1.7,0.2,3.7,0.6,5.8c0.3,2.1,0.8,4.2,1.2,6.2c0.5,2,0.9,3.9,1.4,5.5c0.5,1.7,0.8,2.9,1.1,3.7c0.8,2.6,1.7,5.3,2.5,8
		c0.8,2.7,1.5,5.5,1.9,8.3c1,6.4,0.7,11.9-1,16.7c-0.8,2.5-2.2,4.7-4.1,6.7c-1.9,2-4.2,3.6-7,4.8c-3.6,1.6-7.5,2.4-11.6,2.4
		c-2,0-4.2-0.1-6.5-0.3c-2.3-0.2-4.4-0.6-6.3-1.1c-3.6-0.9-6.7-2.8-9.2-5.5c-2.1-2.4-3.4-5.4-3.9-8.9c-0.4-3.3,0-6.5,1.1-9.7
		c1.1-3.3,2.8-6,5-8.2c2.4-2.4,5.1-3.8,8.1-4.2c1.5-0.3,3.3-0.1,5.4,0.5c2,0.6,3.9,1.5,5.6,2.9c1.7,1.4,3,3.1,3.8,5.2
		c0.8,2.1,0.8,4.5-0.1,7.2c-0.3,0.9-1,1.5-2.1,1.8c-1.1,0.3-2.2,0.3-3.3,0.1s-2.1-0.6-2.8-1.1c-0.8-0.6-1-1.2-0.6-2
		c0.8-1.8,1.2-3.4,1.2-4.8c0-1.5-0.4-2.7-1-3.8c-0.6-1.1-1.5-1.8-2.5-2.3c-1-0.5-2.1-0.7-3.1-0.5c-2.3,0.4-4.5,1.5-6.4,3.3
		c-1.9,1.8-3.3,4.2-4.3,7.1c-1,2.9-1.3,5.8-0.9,8.5c0.4,2.7,1.4,5,3.1,6.9c1.9,2.2,4.4,3.8,7.4,4.6c3,0.9,6.2,1,9.5,0.2
		c3.2-0.7,5.9-2,8.2-3.9c2.3-1.9,3.9-4.1,4.9-6.8c0.8-2.5,1.3-5,1.3-7.6c0-2.6-0.1-5.1-0.6-7.7c-0.4-2.6-1.1-5.2-1.8-7.9
		c-0.8-2.6-1.6-5.3-2.4-7.9c-1.1-3.4-2.1-6.7-3-9.8c-0.9-3.2-1.4-6.2-1.5-9.3c-0.2-2.8,0.3-5.4,1.3-7.6c0.4-1,0.9-2,1.6-2.8
		c0.7-0.8,1.4-1.5,2.3-2.1c0.7-0.5,1.7-0.9,2.8-1.2c1.1-0.3,2.3-0.4,3.5-0.3c1.2,0,2.4,0.2,3.6,0.4C92.1,64.9,93.1,65.2,94.1,65.6"
		/>
</g>
</svg>
